<svg width="177" height="35" viewBox="0 0 177 35" fill="none" xmlns="http://www.w3.org/2000/svg">
<path d="M35 0L42.2414 7.24138V20.5172L35 27.7586H14.4828V20.5172H31.3793L35 16.8966V10.8621L31.3793 7.24138H7.24138V35H0V0H35Z" fill="white"/>
<path d="M94.1379 10.8621V14.4828L85.6896 22.931L94.1379 31.3793V35H86.8965L79.6552 27.7586H73.6207L66.3793 35H59.1379V31.3793L67.5862 22.931L59.1379 14.4828V10.8621H66.3793L73.6207 18.1034H79.6552L86.8965 10.8621H94.1379Z" fill="white"/>
<path d="M146.034 0H153.276V35H138.793L131.552 27.7586V24.1379H138.793L142.414 27.7586H146.034V0ZM138.793 16.8966H131.552L121.897 7.24138H118.276V35H111.034V0H125.517L138.793 13.2759V16.8966Z" fill="white"/>
<path d="M169.579 0C170.771 0 171.872 0.301198 172.881 0.903593C173.905 1.50599 174.715 2.3169 175.311 3.33634C175.907 4.35578 176.206 5.45245 176.206 6.62635C176.206 7.87747 175.907 9.01276 175.311 10.0322C174.715 11.0362 173.905 11.8317 172.881 12.4186C171.872 12.9901 170.771 13.2759 169.579 13.2759C168.356 13.2759 167.233 12.9901 166.209 12.4186C165.2 11.8471 164.397 11.0516 163.801 10.0322C163.22 9.01276 162.93 7.87747 162.93 6.62635C162.93 5.45245 163.228 4.35578 163.824 3.33634C164.42 2.3169 165.223 1.50599 166.231 0.903593C167.256 0.301198 168.371 0 169.579 0ZM169.579 11.8857C170.512 11.8857 171.375 11.654 172.17 11.1906C172.965 10.7273 173.599 10.094 174.073 9.29079C174.547 8.47215 174.784 7.56855 174.784 6.58001C174.784 5.65325 174.539 4.79599 174.05 4.00824C173.576 3.20505 172.934 2.57176 172.124 2.10838C171.329 1.62956 170.481 1.39014 169.579 1.39014C168.631 1.39014 167.752 1.62956 166.942 2.10838C166.147 2.57176 165.513 3.20505 165.039 4.00824C164.581 4.81144 164.351 5.68414 164.351 6.62635C164.351 7.61489 164.581 8.51076 165.039 9.31396C165.513 10.1172 166.147 10.7504 166.942 11.2138C167.752 11.6618 168.631 11.8857 169.579 11.8857ZM172.193 5.44473C172.193 6.49506 171.788 7.17468 170.978 7.4836L172.514 9.98586H170.932L169.556 7.69212H168.501V9.98586H167.126V3.26684H169.74C170.565 3.26684 171.176 3.44446 171.574 3.79972C171.987 4.13954 172.193 4.68787 172.193 5.44473ZM168.501 6.46416H169.602C170.045 6.46416 170.351 6.39466 170.519 6.25564C170.687 6.10118 170.771 5.83088 170.771 5.44473C170.771 5.08947 170.687 4.84233 170.519 4.70332C170.351 4.5643 170.045 4.49479 169.602 4.49479H168.501V6.46416Z" fill="white"/>
</svg>
