<svg width="283" height="147" viewBox="0 0 283 147" fill="none" xmlns="http://www.w3.org/2000/svg">
<path d="M55.1094 59.0879H81.3702" stroke="white" stroke-width="5.07753" stroke-linecap="round"/>
<path d="M81.7891 58C82.6545 58.7378 83.4669 59.2065 83.9635 60.2581C84.1285 60.6075 84.5335 61.1922 84.549 61.5776C84.6037 62.9459 84.8835 64.2408 84.8835 65.6106C84.8835 66.9049 85.0508 68.2278 85.0508 69.5228C85.0508 69.921 85.1344 70.2262 85.1344 70.6286C85.1344 70.9577 85.0763 71.3487 85.218 71.6322" stroke="white" stroke-width="5.07753" stroke-linecap="round"/>
<path d="M85.2188 71.6328H87.8114" stroke="white" stroke-width="5.07753" stroke-linecap="round"/>
<path d="M87.8088 72.5518C88.3032 73.5406 88.6451 74.5753 88.6451 75.6973C88.6451 76.9528 88.7288 78.2007 88.7288 79.4562C88.7288 80.8214 88.332 82.1412 88.3106 83.4891C88.2989 84.2248 88.1433 84.9441 88.1433 85.6822C88.1433 86.0829 88.1154 86.6581 87.9342 87.0203C87.7675 87.3538 87.7389 87.7887 87.6415 88.154C87.4702 88.7963 87.3906 89.5337 87.3906 90.1984" stroke="white" stroke-width="5.07753" stroke-linecap="round"/>
<path d="M87.224 90.8682C86.3744 91.3189 85.3136 91.4719 84.3804 91.6673C83.0936 91.9368 81.7368 91.8667 80.4311 91.8718C79.1193 91.8768 77.8074 91.8718 76.4957 91.8718C74.9237 91.8718 73.3517 91.8718 71.7797 91.8718C68.9764 91.8718 66.1732 91.8718 63.3699 91.8718C61.0344 91.8718 58.6988 91.8718 56.3633 91.8718" stroke="white" stroke-width="5.07753" stroke-linecap="round"/>
<path d="M56.7812 59.4219V92.6243" stroke="white" stroke-width="5.07753" stroke-linecap="round"/>
<path d="M59.375 60.6758V87.773" stroke="white" stroke-width="5.07753" stroke-linecap="round"/>
<path d="M61.2148 89.2792C62.9239 85.7433 62.3857 81.2619 62.3857 77.4962C62.3857 73.9743 62.3857 70.4524 62.3857 66.9305C62.3857 65.0689 62.3857 63.2073 62.3857 61.3457" stroke="white" stroke-width="5.07753" stroke-linecap="round"/>
<path d="M64.8125 60.1738C65.1699 64.1354 65.0634 68.1315 65.0634 72.1055C65.0634 74.3652 65.0634 76.6248 65.0634 78.8845C65.0634 80.8251 65.0634 82.7657 65.0634 84.7063C65.0634 85.366 65.0634 86.0258 65.0634 86.6856C65.0634 87.8286 65.0634 88.9716 65.0634 90.1146" stroke="white" stroke-width="5.07753" stroke-linecap="round"/>
<path d="M64.8125 88.3594H81.4555" stroke="white" stroke-width="5.07753" stroke-linecap="round"/>
<path d="M78.3617 87.8563C78.9129 87.6166 80.3159 86.9912 80.3689 86.2486C80.4028 85.7735 80.3712 85.1868 80.4711 84.7247C80.6826 83.7465 80.5362 82.5902 80.5362 81.5884C80.5362 81.0054 80.5311 80.0522 80.2016 79.558C79.8853 79.0835 79.5708 78.6257 79.1795 78.2198C78.7973 77.8235 78.2328 77.5785 77.8971 77.1512C77.4701 76.6078 76.2216 76.2312 75.56 76.2312C74.5206 76.2312 73.1792 76.4709 72.1914 76.129C70.5395 75.5572 68.591 75.7294 66.8203 75.7294" stroke="white" stroke-width="5.07753" stroke-linecap="round"/>
<path d="M64.0586 77.1514H81.538" stroke="white" stroke-width="5.07753" stroke-linecap="round"/>
<path d="M65.4805 73.7236H82.7926" stroke="white" stroke-width="5.07753" stroke-linecap="round"/>
<path d="M69.8284 75.061C71.3413 74.6458 72.8859 74.3457 74.3911 73.9087C74.8135 73.786 75.2036 73.6847 75.5991 73.4905C76.1397 73.2251 76.7245 73.0449 77.1695 72.617C77.5127 72.2871 77.5138 71.8057 77.7736 71.4647C77.9398 71.2465 78.1277 70.6864 78.1871 70.4193C78.3904 69.5042 78.359 68.4526 78.359 67.5154C78.359 66.5905 78.3846 65.567 77.8944 64.7648C77.3527 63.8785 76.9298 63.0707 75.929 62.7204C74.884 62.3546 73.909 62.0196 72.8392 61.7819C72.3197 61.6664 71.6789 61.7633 71.1479 61.7633C70.169 61.7633 69.2257 61.6411 68.2487 61.7633C66.9482 61.9258 65.6231 62.0142 64.3086 62.0142" stroke="white" stroke-width="5.07753" stroke-linecap="round"/>
<path d="M80.8672 62.0146C82.026 63.3803 82.4235 65.1736 82.4516 66.9258C82.4797 68.6834 82.5139 70.4584 82.3308 72.2086C82.1989 73.4685 82.2053 74.7166 82.2053 75.9814" stroke="white" stroke-width="5.07753" stroke-linecap="round"/>
<path d="M83.0434 68.2871C83.7198 70.1837 84.3155 72.0544 84.572 74.0578C84.7088 75.1259 84.872 76.1906 85.0041 77.2591C85.162 78.5367 85.1506 79.8467 85.3479 81.1155C85.4547 81.802 85.6916 82.662 85.2504 83.2993C84.4999 84.3833 83.5845 85.351 83.1084 86.6028C82.9028 87.1435 82.6368 87.6847 82.4765 88.2383C82.4134 88.4564 82.207 88.6435 82.207 88.8609" stroke="white" stroke-width="5.07753" stroke-linecap="round"/>
<path d="M95.5859 91.6204C96.1785 89.9611 96.352 88.2537 96.5895 86.5234C96.8328 84.7508 97.0538 82.9826 97.3237 81.2127C97.4747 80.2221 97.6478 79.2368 97.8022 78.2483C97.8776 77.7658 98.13 77.3004 98.1739 76.8173C98.2485 75.997 98.4392 75.1707 98.5177 74.3455C98.5692 73.805 98.7696 73.2692 98.8291 72.7193C98.9075 71.9939 98.915 71.2686 99.0335 70.5448C99.1212 70.0086 99.223 69.4775 99.3123 68.9418C99.4167 68.3155 99.2863 67.5665 99.4517 66.9671C99.6339 66.3063 99.7414 65.5906 99.8512 64.9042C99.9867 64.0577 100.262 63.208 100.358 62.3487C100.407 61.9012 100.467 60.8125 100.771 60.5088" stroke="white" stroke-width="5.07753" stroke-linecap="round"/>
<path d="M101.273 60.5078C102.056 60.1705 102.917 59.7429 103.736 59.5088C104.037 59.4229 104.392 59.3369 104.702 59.3369C105.344 59.3369 105.985 59.3369 106.626 59.3369" stroke="white" stroke-width="5.07753" stroke-linecap="round"/>
<path d="M101.441 60.8428H123.102" stroke="white" stroke-width="5.07753" stroke-linecap="round"/>
<path d="M103.699 59.6724C105.022 59.5955 106.354 59.7862 107.676 59.8257C108.893 59.862 110.112 59.8397 111.328 59.8397C112.273 59.8397 113.218 59.8397 114.163 59.8397C115.888 59.8397 117.613 59.8397 119.339 59.8397C120.259 59.8397 121.179 59.8397 122.099 59.8397" stroke="white" stroke-width="5.07753" stroke-linecap="round"/>
<path d="M122.852 59.8398C123.573 60.7464 124.292 61.6317 124.71 62.702C125 63.4429 125.277 64.2625 125.277 65.0623C125.277 66.3136 124.821 67.3138 124.441 68.4541" stroke="white" stroke-width="5.07753" stroke-linecap="round"/>
<path d="M124.945 67.3662C124.945 73.3826 125.029 79.4095 125.029 85.431" stroke="white" stroke-width="5.07753" stroke-linecap="round"/>
<path d="M127.704 90.7828C127.508 89.7319 127.237 88.7 127.072 87.6419C126.855 86.253 126.741 84.8553 126.575 83.4603C126.322 81.3447 125.829 79.2647 125.464 77.1692C125.319 76.3342 125.433 75.4112 125.362 74.5626C125.255 73.2718 125.33 71.9849 125.26 70.6922C125.197 69.5192 125.117 68.3283 125.278 67.1611C125.351 66.6329 125.362 66.1231 125.362 65.5906C125.362 65.0172 125.195 64.4986 125.195 63.9365" stroke="white" stroke-width="5.07753" stroke-linecap="round"/>
<path d="M126.865 91.7877C125.571 91.7877 124.423 91.5322 123.158 91.3789C122.445 91.2924 121.682 91.3696 120.965 91.3696C119.837 91.3696 118.71 91.3696 117.582 91.3696" stroke="white" stroke-width="5.07753" stroke-linecap="round"/>
<path d="M117.25 90.6179C116.814 89.8583 116.479 89.0264 116.028 88.2808C115.826 87.9476 115.51 87.6743 115.368 87.3051C115.216 86.9089 115.232 86.4345 115.034 86.0599C114.824 85.6632 114.592 85.7672 114.16 85.7672C113.402 85.7672 112.591 85.7514 111.851 85.9159C111.62 85.9673 111.376 85.9001 111.145 85.953C110.86 86.0181 110.603 86.1017 110.309 86.1017" stroke="white" stroke-width="5.07753" stroke-linecap="round"/>
<path d="M109.886 86.0996C109.265 86.2598 108.67 86.4725 108.056 86.6432C107.744 86.7299 107.707 86.8963 107.461 87.0196" stroke="white" stroke-width="5.07753" stroke-linecap="round"/>
<path d="M106.96 88.1084C106.927 89.0571 106.797 90.1915 106.375 91.0356" stroke="white" stroke-width="5.07753" stroke-linecap="round"/>
<path d="M98.4297 91.0352H106.291" stroke="white" stroke-width="5.07753" stroke-linecap="round"/>
<path d="M110.288 85.0779C109.914 85.0518 109.56 84.9653 109.234 84.8168C110.165 84.767 111.091 84.7623 112.007 84.8456C112.583 84.8979 110.865 85.118 110.288 85.0779Z" fill="white"/>
<path d="M99.6016 88.5254C101.566 87.3539 102.423 84.7748 104.582 83.8606C105.35 83.5357 106.116 83.4238 106.943 83.4238C107.118 83.4238 107.462 83.3581 107.63 83.4424C107.954 83.6043 108.162 84.0121 108.42 84.2601C108.939 84.7589 109.574 85.0282 110.288 85.0779C110.865 85.118 112.583 84.8979 112.007 84.8456C109.051 84.5768 105.983 85.2244 103.031 85.3474" stroke="white" stroke-width="5.07753" stroke-linecap="round"/>
<path d="M103.367 83.9268H121.934" stroke="white" stroke-width="5.07753" stroke-linecap="round"/>
<path d="M104.453 81.082H122.852" stroke="white" stroke-width="5.07753" stroke-linecap="round"/>
<path d="M119.674 80.7482C119.566 79.4819 119.396 78.2381 119.423 76.9661C119.438 76.2717 119.547 75.6562 119.405 74.9589C119.222 74.0648 119.292 73.0999 119.047 72.2176C118.902 71.6971 118.809 71.0784 118.749 70.545C118.689 70.005 118.509 69.4863 118.378 68.9606C118.256 68.4727 118.216 67.4547 117.75 67.1811C117.483 67.0235 117.306 66.7919 116.979 66.6793C116.446 66.4955 115.806 66.4578 115.241 66.4469C113.766 66.4186 112.273 66.3633 110.809 66.3633C109.789 66.3633 108.836 66.3515 107.919 66.8651C107.331 67.1946 106.665 67.3906 106.204 67.9198C105.933 68.2319 105.635 69.0339 105.289 69.2068" stroke="white" stroke-width="5.07753" stroke-linecap="round"/>
<path d="M107.548 67.7002C106.577 69.933 106.056 72.4518 105.796 74.8787C105.651 76.234 105.457 77.5761 105.457 78.9442C105.457 79.3957 105.47 79.9099 105.271 80.3288C105.155 80.5738 105.298 81.1195 105.039 81.2488" stroke="white" stroke-width="5.07753" stroke-linecap="round"/>
<path d="M102.782 82.5879C102.021 83.1342 101.17 83.5359 100.426 84.0933C100.1 84.3378 99.6698 84.5284 99.2695 84.5951" stroke="white" stroke-width="5.07753" stroke-linecap="round"/>
<path d="M99.1016 84.6793C100.213 82.4306 101.313 80.2078 102.117 77.826C102.56 76.5137 102.855 75.173 103.2 73.8348C103.536 72.5256 103.987 71.2531 104.496 70.0016C105.011 68.735 105.548 67.1269 105.439 65.7317C105.411 65.3757 105.005 64.2395 105.541 64.1055" stroke="white" stroke-width="5.07753" stroke-linecap="round"/>
<path d="M103.283 66.7812C103.283 68.5252 103.283 70.2691 103.283 72.013C103.283 72.5663 103.347 73.1054 102.781 73.3883" stroke="white" stroke-width="5.07753" stroke-linecap="round"/>
<path d="M101.609 69.8757C101.97 68.5027 102.813 67.2151 103.775 66.1773C104.012 65.921 104.359 65.7529 104.676 65.6104C105.392 65.2881 106.187 65.1341 106.962 65.025C109.336 64.6906 111.64 64.2299 114.052 64.1887C115.987 64.1556 117.911 63.7705 119.841 63.7705" stroke="white" stroke-width="5.07753" stroke-linecap="round"/>
<path d="M120.176 63.7705C120.77 64.3759 121.598 64.9533 121.598 65.8613C121.598 66.5521 121.598 67.2428 121.598 67.9336C121.598 69.1501 121.848 70.3311 121.848 71.5484C121.848 72.3555 121.854 73.1442 122.034 73.9366C122.189 74.6154 122.327 75.3646 122.248 76.0646C122.158 76.8642 121.734 77.6216 121.551 78.4063C121.486 78.6875 121.591 79.0016 121.43 79.2427" stroke="white" stroke-width="5.07753" stroke-linecap="round"/>
<path d="M118.253 87.5681C119.054 88.0653 119.973 88.3504 120.907 88.4639C120.548 88.269 120.219 87.987 119.907 87.5866C119.78 87.4233 118.948 85.9881 118.82 86.0812C118.453 86.3484 117.952 86.3298 117.603 86.6667C117.257 86.9998 118.035 87.4328 118.253 87.5681Z" fill="white"/>
<path d="M120.428 81.5C120.801 83.6583 121.269 85.9123 122.184 87.9212C122.252 88.0709 122.327 88.2151 122.43 88.344C122.472 88.396 122.594 88.4595 122.546 88.5066C122.399 88.654 121.541 88.5168 121.376 88.5066C120.282 88.4395 119.188 88.1482 118.253 87.5681C118.035 87.4328 117.257 86.9998 117.603 86.6667C117.952 86.3298 118.453 86.3484 118.82 86.0812C118.948 85.9881 119.78 87.4233 119.907 87.5866C120.703 88.6098 121.614 88.8597 122.853 88.8597" stroke="white" stroke-width="5.07753" stroke-linecap="round"/>
<path d="M98.9336 86.6852C100.244 87.103 101.743 87.7523 103.152 87.3496C103.473 87.258 103.862 87.3092 104.119 87.0151C104.449 86.6375 104.387 86.0277 104.453 85.5608C104.645 84.2204 104.537 82.8173 104.537 81.4674C104.537 80.4798 104.523 79.4889 104.593 78.5031C104.669 77.4154 104.934 76.3888 105.169 75.3296C105.478 73.9378 105.665 72.5302 105.922 71.1294C106.196 69.6305 107.181 68.5403 107.548 67.0964C107.766 66.2358 107.903 65.1306 107.752 64.2482C107.681 63.8295 107.564 63.8533 107.195 63.8533C106.392 63.8533 105.533 63.9367 104.788 63.5838C104.623 63.5057 104.489 63.5318 104.309 63.5048C103.733 63.4183 103.162 63.2834 102.613 63.1006" stroke="white" stroke-width="5.07753" stroke-linecap="round"/>
<path d="M136.903 91.3695C136.628 90.4231 136.736 89.3982 136.736 88.4237C136.736 87.0779 136.736 85.732 136.736 84.3861C136.736 82.461 136.736 80.5359 136.736 78.6108C136.736 75.38 136.736 72.1493 136.736 68.9186C136.736 66.1153 136.736 63.3121 136.736 60.5088" stroke="white" stroke-width="5.07753" stroke-linecap="round"/>
<path d="M136.402 60.5092C137.127 60.3743 137.835 60.5092 138.568 60.5092C139.32 60.5092 140.073 60.5092 140.826 60.5092C141.442 60.5092 142.058 60.5092 142.675 60.5092" stroke="white" stroke-width="5.07753" stroke-linecap="round"/>
<path d="M144.18 61.0938C144.877 61.7376 145.173 62.6723 145.806 63.3704C146.135 63.7338 146.491 64.0738 146.837 64.4205C147.245 64.8278 147.652 65.2351 148.059 65.6425C148.453 66.0359 148.846 66.4292 149.24 66.8226C149.483 67.0666 149.727 67.3105 149.971 67.5544C150.165 67.748 150.358 67.9416 150.552 68.1352C150.957 68.5401 150.373 68.9143 150.099 69.3084C149.84 69.6807 150.238 69.9793 150.578 70.168C151.075 70.4444 151.471 70.9777 151.874 71.3806" stroke="white" stroke-width="5.07753" stroke-linecap="round"/>
<path d="M149.195 69.457C150.187 70.086 151.18 70.6156 152.02 71.4456C152.692 72.1092 153.428 72.6863 154.097 73.3553C154.679 73.9376 155.262 74.5199 155.844 75.1023" stroke="white" stroke-width="5.07753" stroke-linecap="round"/>
<path d="M157.393 75.8144C155.941 74.7141 154.716 73.2207 153.423 71.9277C152.99 71.4949 152.557 71.062 152.124 70.6291C150.744 69.2492 149.364 67.8692 147.984 66.4893" stroke="white" stroke-width="5.07753" stroke-linecap="round"/>
<path d="M158.984 75.3113C159.34 74.0554 159.235 72.7404 159.235 71.4455C159.235 70.5488 159.235 69.6521 159.235 68.7553C159.235 67.6635 159.235 66.5716 159.235 65.4797C159.235 63.8504 159.235 62.2211 159.235 60.5918" stroke="white" stroke-width="5.07753" stroke-linecap="round"/>
<path d="M160.152 60.5918H166.508" stroke="white" stroke-width="5.07753" stroke-linecap="round"/>
<path d="M166.508 60.5918V90.1144" stroke="white" stroke-width="5.07753" stroke-linecap="round"/>
<path d="M159.566 90.3662H166.341" stroke="white" stroke-width="5.07753" stroke-linecap="round"/>
<path d="M144.055 74.6016L158.481 89.0283" stroke="white" stroke-width="5.07753" stroke-linecap="round"/>
<path d="M144.598 74.2246V90.1986" stroke="white" stroke-width="5.07753" stroke-linecap="round"/>
<path d="M145.015 91.4528C142.451 91.4145 139.887 91.3691 137.32 91.3691" stroke="white" stroke-width="5.07753" stroke-linecap="round"/>
<path d="M140.166 88.7756C141.025 86.8119 140.889 84.2357 140.5 82.1686C140.177 80.453 139.777 78.7682 139.627 77.0251C139.489 75.4304 139.35 73.8239 139.264 72.2255C139.244 71.856 139.131 71.2414 139.292 70.8734C139.593 70.1856 139.73 69.6875 139.743 68.9034C139.753 68.2515 139.747 67.5993 139.747 66.9473C139.747 65.9437 139.747 64.9401 139.747 63.9365" stroke="white" stroke-width="5.07753" stroke-linecap="round"/>
<path d="M141.672 63.0176C142.131 65.6223 142.632 68.2401 142.671 70.893C142.694 72.4351 142.746 73.9668 142.824 75.5068C142.863 76.2604 142.969 77.0085 143.005 77.7603C143.043 78.5317 143.084 77.4273 143.094 77.2352" stroke="white" stroke-width="5.07753" stroke-linecap="round"/>
<path d="M143.008 66.1123C143.518 66.7301 144.074 67.3149 144.625 67.8965C146.491 69.8664 147.988 72.1268 149.643 74.2712C151.565 76.7614 153.514 78.8553 156.306 80.251C157.329 80.763 158.125 81.3532 158.856 82.2117C159.377 82.8234 159.747 83.5316 160.218 84.1771C160.543 84.6226 160.844 85.1226 161.114 85.6035C161.318 85.9646 161.399 86.5415 161.742 86.7697" stroke="white" stroke-width="5.07753" stroke-linecap="round"/>
<path d="M161.739 86.7695C162.944 83.6034 162.572 80.0663 161.971 76.7985C161.764 75.6711 161.572 74.49 161.572 73.3417C161.572 72.4387 161.766 71.5875 161.841 70.6933C161.967 69.197 162.102 67.4978 161.804 66.0098C161.702 65.4986 161.28 64.5017 161.906 64.1885" stroke="white" stroke-width="5.07753" stroke-linecap="round"/>
<path d="M161.993 64.1885C162.713 66.5406 162.813 69.1951 162.29 71.6133C161.807 73.8451 161.082 76.0219 160.529 78.2342C160.374 78.8553 160.118 79.4863 159.8 80.0416C159.543 80.488 159.14 80.8627 158.912 81.3194C158.686 81.7709 158.1 81.3566 157.895 81.0824" stroke="white" stroke-width="5.07753" stroke-linecap="round"/>
<path d="M155.051 81.5C156.271 83.2065 157.452 85.0688 159.037 86.4715C159.275 86.6821 159.507 86.874 159.818 86.9362" stroke="white" stroke-width="5.07753" stroke-linecap="round"/>
<path d="M175.789 60.1738V91.5363" stroke="white" stroke-width="5.07753" stroke-linecap="round"/>
<path d="M175.207 59.7549C177.925 60.2853 180.865 60.0058 183.635 60.0058C184.673 60.0058 185.711 60.0058 186.748 60.0058" stroke="white" stroke-width="5.07753" stroke-linecap="round"/>
<path d="M188.086 60.8428V90.1144" stroke="white" stroke-width="5.07753" stroke-linecap="round"/>
<path d="M177.715 90.0322H188.002" stroke="white" stroke-width="5.07753" stroke-linecap="round"/>
<path d="M176.129 90.6172H188.256" stroke="white" stroke-width="5.07753" stroke-linecap="round"/>
<path d="M185.746 61.0098V90.5323" stroke="white" stroke-width="5.07753" stroke-linecap="round"/>
<path d="M182.234 61.7637V86.9373" stroke="white" stroke-width="5.07753" stroke-linecap="round"/>
<path d="M178.887 89.0281C179.149 86.7268 179.054 84.3892 179.054 82.0773C179.054 79.4877 179.054 76.8982 179.054 74.3087C179.054 72.4346 179.054 70.5606 179.054 68.6866C179.054 67.0759 179.054 65.4652 179.054 63.8545" stroke="white" stroke-width="5.07753" stroke-linecap="round"/>
<path d="M199.211 59.7549H209.498" stroke="white" stroke-width="5.07753" stroke-linecap="round"/>
<path d="M211 60.1738V90.5327" stroke="white" stroke-width="5.07753" stroke-linecap="round"/>
<path d="M198.961 90.6172H208.579" stroke="white" stroke-width="5.07753" stroke-linecap="round"/>
<path d="M198.625 62.5156V89.6964" stroke="white" stroke-width="5.07753" stroke-linecap="round"/>
<path d="M199.043 62.0977C199.306 62.1835 199.58 62.1749 199.675 62.4461C199.805 62.8167 199.902 63.2126 199.944 63.6031C200.102 65.0565 200.178 66.537 200.465 67.9706C200.813 69.7126 201.122 71.4682 201.134 73.2488C201.147 75.2937 201.267 77.283 201.422 79.3215C201.515 80.5468 201.468 81.7867 201.468 83.0153C201.468 84.1394 201.664 85.1625 201.794 86.263C201.861 86.8357 201.834 87.4801 201.97 88.024" stroke="white" stroke-width="5.07753" stroke-linecap="round"/>
<path d="M206.223 66.3922C206.388 67.3206 206.488 68.2495 206.488 69.1974C206.488 71.065 206.037 72.8717 205.921 74.7265C205.921 74.7305 205.92 74.7344 205.92 74.7384C206.246 77.2688 206.447 79.7668 206.553 82.3185C206.596 83.3666 206.696 84.3415 206.906 85.3665C206.971 85.6824 207.214 86.9518 206.864 87.146C206.361 87.4258 206.043 86.5926 205.944 86.2632C205.812 85.8232 205.66 85.3463 205.651 84.8833C205.646 84.5852 205.484 84.3314 205.484 84.0516C205.484 83.4575 205.359 82.8747 205.447 82.2442C205.622 80.995 205.866 79.7615 205.898 78.4946C205.929 77.2448 205.843 75.9867 205.92 74.7384C205.904 74.6106 205.887 74.4827 205.87 74.3548C205.729 73.2983 205.516 72.1056 205.67 71.028C205.806 70.0758 206.028 69.1736 206.107 68.2031C206.156 67.6028 206.201 66.9969 206.223 66.3922Z" fill="white"/>
<path d="M202.641 87.8569C203.85 87.2562 205.01 86.7597 205.061 85.2875C205.132 83.2649 204.568 81.1951 204.165 79.2334C203.543 76.2163 203.047 73.2171 203.245 70.1267C203.294 69.3577 203.4 68.5468 203.519 67.7849C203.584 67.3704 203.717 66.8979 203.728 66.484C203.742 65.9536 203.895 65.4365 203.895 64.8996C203.895 64.4833 204.054 64.1294 204.062 63.7241C204.07 63.3504 204.155 63.3524 204.518 63.3524C205.812 63.3524 205.944 64.9752 206.135 65.9264C206.351 67.0104 206.488 68.091 206.488 69.1974C206.488 71.065 206.037 72.8717 205.921 74.7265C205.843 75.9786 205.929 77.2409 205.898 78.4946C205.866 79.7615 205.622 80.995 205.447 82.2442C205.359 82.8747 205.484 83.4575 205.484 84.0516C205.484 84.3314 205.646 84.5852 205.651 84.8833C205.66 85.3463 205.812 85.8232 205.944 86.2632C206.043 86.5926 206.361 87.4258 206.864 87.146C207.214 86.9518 206.971 85.6824 206.906 85.3665C206.696 84.3415 206.596 83.3666 206.553 82.3185C206.442 79.6379 206.226 77.0167 205.87 74.3548C205.729 73.2983 205.516 72.1056 205.67 71.028C205.806 70.0758 206.028 69.1736 206.107 68.2031C206.176 67.3575 206.237 66.501 206.237 65.6523C206.237 65.4573 206.375 65.1779 206.441 64.9878C206.606 64.511 206.748 63.9439 207.036 63.5243C207.409 62.9811 207.859 62.3484 207.993 61.6797" stroke="white" stroke-width="5.07753" stroke-linecap="round"/>
<g opacity="0.5">
<path d="M62.1918 112.741C62.1918 112.759 62.1888 112.82 62.1827 112.923C62.1767 113.026 62.1435 113.157 62.0832 113.315C62.0288 113.466 61.9353 113.633 61.8025 113.815C61.6698 113.997 61.4737 114.173 61.2142 114.343C61.1478 114.483 61.0814 114.592 61.0151 114.671C60.9487 114.75 60.9094 114.795 60.8974 114.808L60.825 114.908L60.6892 114.889C60.478 114.859 60.2909 114.835 60.128 114.817C59.9711 114.798 59.8263 114.789 59.6935 114.789C59.5547 114.789 59.425 114.798 59.3043 114.817C59.1836 114.835 59.0599 114.862 58.9332 114.899C58.8125 114.935 58.6827 114.984 58.5439 115.044C58.4112 115.099 58.2633 115.166 58.1004 115.244L57.9646 115.263C57.8077 115.263 57.6539 115.257 57.503 115.244C57.3582 115.226 57.2284 115.217 57.1138 115.217C56.9508 115.217 56.803 115.226 56.6702 115.244C56.5435 115.263 56.4168 115.293 56.2901 115.336C56.1634 115.378 56.0276 115.433 55.8827 115.499C55.7379 115.566 55.569 115.648 55.3759 115.745L55.2763 115.8L55.2039 115.782C54.9746 115.703 54.7724 115.581 54.5974 115.417C54.4465 115.278 54.3078 115.081 54.181 114.826C54.0603 114.571 54 114.237 54 113.824C54 113.57 54.0332 113.354 54.0996 113.178C54.172 113.002 54.2504 112.86 54.3349 112.75C54.4254 112.641 54.5069 112.562 54.5793 112.514C54.6517 112.459 54.694 112.429 54.706 112.423L54.7784 112.368L54.869 112.386C55.056 112.423 55.219 112.45 55.3578 112.468C55.4965 112.486 55.6263 112.495 55.747 112.495C55.8556 112.495 55.9612 112.489 56.0638 112.477C56.1724 112.459 56.2871 112.435 56.4077 112.404C56.5284 112.368 56.6612 112.326 56.806 112.277C56.9569 112.222 57.1349 112.159 57.3401 112.086L57.4125 112.049L57.4849 112.068C57.7685 112.128 58.022 112.168 58.2452 112.186C58.1728 112.071 58.0853 111.958 57.9827 111.849C57.8862 111.734 57.7836 111.616 57.675 111.494L57.6116 111.403C57.5271 111.094 57.4336 110.811 57.331 110.557C57.2284 110.296 57.1077 110.053 56.969 109.828C56.8362 109.604 56.6853 109.391 56.5164 109.191C56.3474 108.991 56.1573 108.794 55.9461 108.599L55.8737 108.545V108.472C55.7711 107.853 55.584 107.289 55.3125 106.779C55.0409 106.263 54.6789 105.796 54.2263 105.377L54.1448 105.304V105.195C54.1448 105.189 54.1509 105.162 54.1629 105.113C54.175 105.065 54.1961 105.001 54.2263 104.922C54.2565 104.843 54.3017 104.752 54.3621 104.649C54.4224 104.546 54.5009 104.44 54.5974 104.33C54.5853 104.3 54.5793 104.273 54.5793 104.248C54.5793 104.224 54.5793 104.197 54.5793 104.166C54.5793 103.912 54.6125 103.696 54.6789 103.52C54.7513 103.344 54.8297 103.202 54.9142 103.092C54.9987 102.983 55.0772 102.904 55.1496 102.856C55.222 102.801 55.2642 102.771 55.2763 102.765L55.3578 102.728L55.4483 102.746C55.7862 102.825 56.0698 102.865 56.2991 102.865C56.4077 102.865 56.5103 102.859 56.6069 102.847C56.7034 102.828 56.806 102.804 56.9146 102.774C57.0293 102.737 57.153 102.698 57.2858 102.655C57.4185 102.613 57.5724 102.564 57.7474 102.51C57.7776 102.498 57.8047 102.489 57.8289 102.482C57.853 102.47 57.8802 102.455 57.9103 102.437L57.9827 102.391L58.0642 102.41C58.2875 102.458 58.4836 102.495 58.6526 102.519C58.8276 102.537 58.9875 102.546 59.1323 102.546C59.4039 102.546 59.6664 102.507 59.9198 102.428C60.1732 102.349 60.481 102.228 60.8431 102.064L60.9517 102L61.0603 102.064C61.0663 102.07 61.1056 102.097 61.178 102.146C61.2564 102.194 61.3439 102.273 61.4405 102.382C61.537 102.492 61.6336 102.634 61.7301 102.81C61.8267 102.986 61.8961 103.202 61.9383 103.456C61.9504 103.523 61.9594 103.593 61.9655 103.666C61.9715 103.733 61.9745 103.793 61.9745 103.848C61.9745 104.054 61.9504 104.239 61.9021 104.403C61.8538 104.561 61.7995 104.697 61.7392 104.813C61.6788 104.922 61.6215 105.01 61.5672 105.077C61.5189 105.137 61.4918 105.171 61.4857 105.177L61.3952 105.25L61.2685 105.231C61.0633 105.201 60.8793 105.18 60.7163 105.168C60.5595 105.15 60.4146 105.14 60.2819 105.14C60.1431 105.14 60.0133 105.15 59.8926 105.168C59.772 105.18 59.6482 105.204 59.5215 105.241C59.4008 105.277 59.2711 105.326 59.1323 105.386C58.9935 105.441 58.8396 105.508 58.6707 105.586L58.6164 105.623L58.5439 105.605C58.3931 105.605 58.2573 105.602 58.1366 105.596C58.0159 105.59 57.9043 105.586 57.8017 105.586C57.9224 105.793 58.0552 105.99 58.2 106.178C58.3508 106.36 58.5198 106.536 58.7069 106.706L58.7612 106.797C58.8517 107.125 58.9483 107.425 59.0508 107.698C59.1534 107.965 59.2711 108.214 59.4039 108.445C59.5366 108.669 59.6875 108.882 59.8564 109.082C60.0314 109.282 60.2306 109.476 60.4538 109.664L60.5263 109.801C60.5866 110.117 60.656 110.402 60.7345 110.657C60.8189 110.906 60.9215 111.139 61.0422 111.358C61.1689 111.576 61.3168 111.785 61.4857 111.986C61.6607 112.186 61.8719 112.389 62.1194 112.596L62.1737 112.65L62.1918 112.741Z" fill="white"/>
<path d="M74.4134 103.347L74.359 103.456C74.1901 103.851 74.0664 104.239 73.9879 104.622C73.9155 104.998 73.8793 105.374 73.8793 105.75C73.8793 106.114 73.9155 106.482 73.9879 106.852V106.979C73.8491 107.38 73.7435 107.75 73.6711 108.09C73.5987 108.43 73.5625 108.763 73.5625 109.091C73.5625 109.303 73.5776 109.516 73.6078 109.728C73.6379 109.941 73.6862 110.162 73.7526 110.393V110.538C73.5836 110.902 73.4599 111.233 73.3815 111.531C73.309 111.828 73.2728 112.131 73.2728 112.441C73.4659 112.392 73.653 112.335 73.834 112.268C74.0151 112.195 74.2233 112.116 74.4586 112.031L74.6034 111.995C74.7543 112.013 74.8961 112.031 75.0289 112.049C75.1677 112.062 75.3034 112.068 75.4362 112.068C75.8405 112.068 76.2297 112.013 76.6039 111.904C76.5737 111.728 76.5405 111.549 76.5043 111.367C76.4681 111.179 76.4228 110.99 76.3685 110.802L76.3414 110.693C76.3896 110.469 76.4228 110.247 76.4409 110.029C76.4651 109.804 76.4771 109.577 76.4771 109.346C76.4771 108.951 76.4409 108.566 76.3685 108.19C76.2961 107.808 76.1905 107.434 76.0517 107.07V106.925C76.1422 106.645 76.2056 106.369 76.2418 106.096C76.284 105.823 76.3052 105.547 76.3052 105.268C76.3052 104.946 76.275 104.628 76.2146 104.312C76.1603 103.997 76.0728 103.675 75.9521 103.347L75.8978 103.238L75.9793 103.12C75.9853 103.114 76.0215 103.071 76.0879 102.992C76.1543 102.913 76.2599 102.828 76.4047 102.737C76.5495 102.646 76.7336 102.564 76.9569 102.492C77.1862 102.413 77.4638 102.373 77.7896 102.373C78.0431 102.373 78.2633 102.404 78.4504 102.464C78.6435 102.525 78.8064 102.592 78.9392 102.664C79.072 102.737 79.1715 102.807 79.2379 102.874C79.3043 102.935 79.3405 102.968 79.3465 102.974L79.437 103.065L79.4008 103.202C79.256 103.742 79.1836 104.27 79.1836 104.785C79.1836 105.417 79.2952 106.023 79.5185 106.606V106.743C79.4038 107.246 79.3465 107.735 79.3465 108.208C79.3465 108.973 79.4944 109.707 79.7901 110.411L79.8263 110.484L79.8082 110.557C79.6633 111.085 79.5909 111.6 79.5909 112.104C79.5909 112.48 79.6271 112.85 79.6995 113.215C79.778 113.579 79.8957 113.943 80.0525 114.307L80.0888 114.38L80.0525 114.48C80.0465 114.486 80.0133 114.544 79.953 114.653C79.8987 114.756 79.7961 114.871 79.6452 114.999C79.5004 115.126 79.3013 115.241 79.0478 115.345C78.7944 115.448 78.4685 115.499 78.0702 115.499C77.8228 115.499 77.6086 115.475 77.4276 115.427C77.2526 115.378 77.1017 115.317 76.975 115.244C76.8483 115.172 76.7457 115.096 76.6672 115.017C76.5948 114.938 76.5375 114.868 76.4952 114.808C76.3082 114.868 76.1241 114.938 75.9431 115.017C75.7681 115.09 75.5871 115.178 75.4 115.281L75.2914 115.299C74.9836 115.299 74.6879 115.305 74.4043 115.317C74.1267 115.323 73.8552 115.348 73.5896 115.39C73.3302 115.427 73.0707 115.487 72.8112 115.572C72.5578 115.663 72.3013 115.788 72.0418 115.945L71.9694 116L71.8789 115.982C71.8427 115.964 71.7763 115.936 71.6797 115.9C71.5892 115.87 71.4836 115.806 71.3629 115.709C71.2483 115.618 71.1276 115.484 71.0009 115.308C70.8741 115.126 70.7595 114.88 70.6569 114.571C70.4879 114.492 70.3491 114.404 70.2405 114.307C70.1319 114.204 70.0444 114.107 69.978 114.016C69.9177 113.925 69.8724 113.849 69.8423 113.788C69.8181 113.721 69.806 113.682 69.806 113.67L69.7789 113.579L69.8241 113.506C70.0173 113.117 70.1591 112.759 70.2496 112.432C70.3461 112.098 70.3944 111.734 70.3944 111.339C70.3944 111.182 70.3854 111.018 70.3673 110.848C70.3552 110.678 70.3341 110.496 70.3039 110.302V110.192C70.4306 109.828 70.5272 109.482 70.5935 109.155C70.6599 108.827 70.6931 108.499 70.6931 108.172C70.6931 107.959 70.675 107.744 70.6388 107.525C70.6086 107.307 70.5634 107.076 70.503 106.834L70.4849 106.761L70.5211 106.679C70.7082 106.296 70.847 105.914 70.9375 105.532C71.0341 105.15 71.0823 104.755 71.0823 104.349C71.0823 103.954 71.031 103.544 70.9285 103.12L70.8922 102.992L70.9918 102.919C70.9979 102.913 71.031 102.88 71.0914 102.819C71.1517 102.759 71.2422 102.698 71.3629 102.637C71.4836 102.57 71.6345 102.51 71.8155 102.455C72.0026 102.401 72.2198 102.373 72.4672 102.373C72.781 102.373 73.0556 102.419 73.2909 102.51C73.5263 102.595 73.7194 102.692 73.8703 102.801C74.0271 102.904 74.1418 103.001 74.2142 103.092C74.2927 103.183 74.3349 103.232 74.3409 103.238L74.4134 103.347Z" fill="white"/>
<path d="M98.384 103.202L98.3478 103.311C98.2392 103.651 98.1517 103.981 98.0853 104.303C98.025 104.625 97.9948 104.946 97.9948 105.268C97.9948 105.511 98.0129 105.753 98.0491 105.996C98.0913 106.233 98.1487 106.476 98.2211 106.724V106.852C98.034 107.495 97.9405 108.123 97.9405 108.736C97.9405 109.052 97.9646 109.358 98.0129 109.655C98.0612 109.953 98.1366 110.247 98.2392 110.538V110.693C98.1185 111.009 98.028 111.327 97.9676 111.649C97.9133 111.971 97.8862 112.292 97.8862 112.614C97.8862 113.227 97.9918 113.834 98.203 114.434L98.2392 114.534L98.203 114.607C98.1969 114.619 98.1638 114.674 98.1034 114.771C98.0431 114.862 97.9435 114.962 97.8047 115.072C97.6659 115.181 97.4788 115.281 97.2435 115.372C97.0082 115.457 96.7155 115.499 96.3655 115.499C96.0758 115.499 95.8284 115.472 95.6233 115.417C95.4181 115.357 95.2461 115.278 95.1073 115.181H95.0168C94.8539 115.181 94.709 115.166 94.5823 115.135C94.4556 115.099 94.35 115.062 94.2655 115.026C94.181 114.984 94.1146 114.944 94.0664 114.908C94.0241 114.865 94 114.838 93.9939 114.826L93.9215 114.771V114.68C93.8914 114.061 93.7646 113.469 93.5414 112.905C93.3181 112.341 92.9922 111.782 92.5638 111.23L92.5276 111.139C92.4552 110.726 92.3526 110.338 92.2198 109.974C92.0931 109.61 91.9362 109.258 91.7491 108.918C91.7612 109.203 91.7884 109.479 91.8306 109.746C91.8789 110.013 91.9513 110.277 92.0478 110.538L92.084 110.62L92.0478 110.693C91.9332 111.003 91.8487 111.315 91.7944 111.631C91.7401 111.94 91.7129 112.256 91.7129 112.577C91.7129 112.893 91.7371 113.205 91.7853 113.515C91.8336 113.818 91.9151 114.125 92.0297 114.434L92.0659 114.534L92.0297 114.607C92.0237 114.619 91.9905 114.674 91.9302 114.771C91.8698 114.862 91.7703 114.962 91.6315 115.072C91.4927 115.181 91.3026 115.281 91.0612 115.372C90.8259 115.457 90.5302 115.499 90.1741 115.499C89.8181 115.499 89.5224 115.454 89.2871 115.363C89.0578 115.266 88.8737 115.16 88.7349 115.044C88.6022 114.923 88.5086 114.814 88.4543 114.717C88.4 114.619 88.3729 114.565 88.3729 114.553L88.3366 114.462L88.3729 114.38C88.5116 114.046 88.6142 113.703 88.6806 113.351C88.747 112.999 88.7802 112.635 88.7802 112.259C88.7802 112.004 88.7651 111.749 88.7349 111.494C88.7108 111.233 88.6655 110.966 88.5991 110.693V110.584C88.6716 110.28 88.7289 109.983 88.7711 109.692C88.8194 109.394 88.8435 109.106 88.8435 108.827C88.8435 108.499 88.8164 108.181 88.7621 107.871C88.7078 107.562 88.6354 107.252 88.5448 106.943L88.5267 106.87L88.5629 106.797C88.8224 106.13 88.9522 105.465 88.9522 104.804C88.9522 104.537 88.931 104.276 88.8888 104.021C88.8526 103.76 88.7923 103.493 88.7078 103.22L88.6716 103.101L88.744 103.01C88.75 103.004 88.7862 102.968 88.8526 102.901C88.919 102.828 89.0185 102.752 89.1513 102.674C89.2901 102.589 89.4621 102.516 89.6672 102.455C89.8724 102.388 90.1168 102.355 90.4004 102.355C90.672 102.355 90.9043 102.388 91.0974 102.455C91.2965 102.516 91.4655 102.589 91.6043 102.674H91.7491C92.0026 102.674 92.2047 102.704 92.3556 102.765C92.5065 102.819 92.5879 102.853 92.6 102.865L92.7177 102.919L92.7358 103.029C92.8625 104.279 93.294 105.329 94.0302 106.178L94.0845 106.233V106.287C94.2414 107.283 94.5521 108.141 95.0168 108.863V108.845C95.0168 108.518 94.9927 108.199 94.9444 107.889C94.8961 107.58 94.8267 107.264 94.7362 106.943V106.797C94.9957 106.13 95.1254 105.453 95.1254 104.767C95.1254 104.245 95.05 103.73 94.8991 103.22L94.8629 103.101L94.9353 103.01C94.9414 103.004 94.9776 102.968 95.0439 102.901C95.1103 102.828 95.2099 102.752 95.3427 102.674C95.4814 102.589 95.6534 102.516 95.8586 102.455C96.0638 102.388 96.3082 102.355 96.5918 102.355C96.8754 102.355 97.1228 102.394 97.334 102.473C97.5452 102.546 97.7232 102.628 97.8681 102.719C98.0129 102.81 98.1215 102.895 98.1939 102.974C98.2663 103.053 98.3056 103.095 98.3116 103.101L98.384 103.202Z" fill="white"/>
<path d="M110.968 107.116L110.95 107.17C110.775 107.583 110.648 107.959 110.569 108.299C110.491 108.633 110.452 108.964 110.452 109.291C110.452 109.485 110.464 109.68 110.488 109.874C110.512 110.068 110.548 110.271 110.597 110.484L110.615 110.557L110.578 110.638C110.403 110.984 110.268 111.294 110.171 111.567C110.081 111.834 110.026 112.113 110.008 112.404C110.129 112.386 110.237 112.365 110.334 112.341C110.431 112.316 110.524 112.289 110.615 112.259C110.711 112.222 110.808 112.186 110.904 112.15C111.007 112.113 111.122 112.074 111.248 112.031C111.278 112.019 111.306 112.01 111.33 112.004C111.354 111.992 111.381 111.977 111.411 111.958L111.484 111.922L111.565 111.94C111.758 111.989 111.942 112.022 112.117 112.04C112.292 112.059 112.464 112.068 112.633 112.068H112.986C112.974 112.013 112.959 111.958 112.941 111.904C112.929 111.843 112.914 111.779 112.896 111.713V111.567C112.98 111.306 113.04 111.069 113.077 110.857C113.119 110.645 113.14 110.435 113.14 110.229C113.14 109.992 113.11 109.756 113.05 109.519C112.995 109.282 112.908 109.009 112.787 108.7L112.751 108.581L112.805 108.49C112.805 108.484 112.838 108.442 112.905 108.363C112.971 108.284 113.074 108.199 113.212 108.108C113.357 108.011 113.541 107.923 113.765 107.844C113.988 107.765 114.253 107.726 114.561 107.726C114.797 107.726 115.005 107.753 115.186 107.808C115.373 107.862 115.53 107.926 115.656 107.999C115.783 108.065 115.88 108.129 115.946 108.19C116.012 108.251 116.052 108.284 116.064 108.29L116.136 108.363L116.1 108.472C116.034 108.733 115.982 108.97 115.946 109.182C115.916 109.388 115.901 109.586 115.901 109.774C115.901 110.004 115.928 110.229 115.982 110.447C116.037 110.666 116.121 110.915 116.236 111.194V111.321C116.187 111.558 116.151 111.779 116.127 111.986C116.109 112.192 116.1 112.383 116.1 112.559C116.1 112.832 116.13 113.099 116.19 113.36C116.251 113.621 116.35 113.912 116.489 114.234L116.525 114.307L116.507 114.398C116.501 114.404 116.468 114.462 116.408 114.571C116.353 114.674 116.251 114.789 116.1 114.917C115.955 115.044 115.756 115.163 115.503 115.272C115.249 115.375 114.923 115.427 114.525 115.427C114.332 115.427 114.16 115.408 114.009 115.372C113.858 115.336 113.725 115.293 113.611 115.244C113.502 115.19 113.409 115.132 113.33 115.072C113.252 115.005 113.188 114.944 113.14 114.889C112.983 114.938 112.823 114.993 112.66 115.053C112.503 115.114 112.34 115.184 112.172 115.263L112.099 115.299L112.045 115.281C111.906 115.281 111.77 115.275 111.637 115.263C111.505 115.251 111.375 115.244 111.248 115.244C110.796 115.244 110.355 115.296 109.927 115.399C109.498 115.502 109.079 115.66 108.669 115.873L108.578 115.909L108.506 115.891C108.524 115.897 108.478 115.879 108.37 115.836C108.261 115.794 108.134 115.715 107.99 115.599C107.845 115.49 107.703 115.339 107.564 115.144C107.431 114.944 107.35 114.689 107.32 114.38C107.157 114.289 107.021 114.192 106.913 114.088C106.81 113.979 106.725 113.879 106.659 113.788C106.599 113.697 106.556 113.621 106.532 113.56C106.508 113.494 106.496 113.457 106.496 113.451L106.478 113.36L106.514 113.278C106.629 113.072 106.728 112.878 106.813 112.696C106.897 112.514 106.967 112.338 107.021 112.168C107.075 111.992 107.115 111.816 107.139 111.64C107.169 111.458 107.184 111.261 107.184 111.048C107.184 110.799 107.166 110.52 107.13 110.211L107.148 110.092C107.305 109.71 107.419 109.355 107.492 109.027C107.57 108.7 107.609 108.372 107.609 108.044C107.609 107.856 107.597 107.665 107.573 107.471C107.549 107.27 107.519 107.064 107.483 106.852L107.465 106.761L107.501 106.706C107.64 106.433 107.754 106.184 107.845 105.96C107.935 105.729 108.005 105.498 108.053 105.268C107.963 105.147 107.884 104.986 107.818 104.785C107.757 104.579 107.727 104.33 107.727 104.039C107.727 103.651 107.775 103.335 107.872 103.092C107.975 102.844 108.086 102.649 108.207 102.51C108.334 102.37 108.448 102.276 108.551 102.228C108.653 102.179 108.711 102.155 108.723 102.155L108.813 102.118L108.895 102.155C109.209 102.313 109.525 102.428 109.845 102.501C110.165 102.567 110.503 102.601 110.859 102.601C111.004 102.601 111.173 102.601 111.366 102.601C111.559 102.595 111.734 102.564 111.891 102.51L111.972 102.492L112.045 102.528C112.401 102.686 112.724 102.807 113.013 102.892C113.309 102.971 113.611 103.01 113.919 103.01C114.106 103.01 114.293 102.998 114.48 102.974C114.673 102.944 114.875 102.901 115.086 102.847L115.195 102.828L115.267 102.901C115.273 102.907 115.306 102.941 115.367 103.001C115.427 103.062 115.487 103.153 115.548 103.274C115.614 103.396 115.675 103.55 115.729 103.739C115.783 103.921 115.81 104.139 115.81 104.394V104.54C115.792 104.813 115.741 105.052 115.656 105.259C115.578 105.459 115.493 105.626 115.403 105.759C115.312 105.887 115.228 105.984 115.15 106.051C115.077 106.117 115.038 106.154 115.032 106.16L114.914 106.233L114.806 106.196C114.45 106.045 114.13 105.932 113.846 105.86C113.569 105.787 113.288 105.75 113.004 105.75C112.835 105.75 112.666 105.762 112.497 105.787C112.328 105.811 112.147 105.847 111.954 105.896L111.819 105.878C111.644 105.847 111.484 105.814 111.339 105.778C111.194 105.735 111.046 105.696 110.895 105.659C110.883 105.75 110.877 105.838 110.877 105.923C110.877 106.008 110.877 106.093 110.877 106.178C110.877 106.312 110.883 106.448 110.895 106.588C110.913 106.727 110.937 106.876 110.968 107.034V107.116Z" fill="white"/>
<path d="M133.128 113.651C133.128 113.925 133.092 114.164 133.019 114.371C132.947 114.577 132.865 114.75 132.775 114.889C132.684 115.029 132.6 115.138 132.522 115.217C132.443 115.29 132.401 115.329 132.395 115.336L132.295 115.408L132.187 115.372C131.541 115.147 130.91 115.035 130.295 115.035C129.782 115.035 129.281 115.111 128.792 115.263H128.666C128.545 115.22 128.412 115.187 128.267 115.163C128.122 115.132 127.978 115.102 127.833 115.072C127.682 115.175 127.495 115.266 127.272 115.345C127.054 115.423 126.777 115.463 126.439 115.463C126.083 115.463 125.787 115.417 125.552 115.326C125.322 115.229 125.138 115.123 125 115.008C124.867 114.886 124.773 114.777 124.719 114.68C124.665 114.583 124.638 114.528 124.638 114.516L124.601 114.416L124.638 114.343C124.776 114.003 124.879 113.661 124.945 113.315C125.012 112.963 125.045 112.599 125.045 112.222C125.045 111.967 125.03 111.713 125 111.458C124.975 111.197 124.93 110.93 124.864 110.657V110.538C124.936 110.241 124.994 109.95 125.036 109.664C125.084 109.373 125.108 109.082 125.108 108.791C125.108 108.463 125.081 108.144 125.027 107.835C124.972 107.525 124.9 107.216 124.809 106.906L124.791 106.834L124.828 106.761C125.087 106.093 125.217 105.429 125.217 104.767C125.217 104.5 125.196 104.236 125.153 103.975C125.117 103.714 125.057 103.447 124.972 103.174L124.936 103.065L125.009 102.974C125.015 102.968 125.051 102.932 125.117 102.865C125.184 102.792 125.283 102.716 125.416 102.637C125.555 102.552 125.727 102.479 125.932 102.419C126.137 102.352 126.381 102.319 126.665 102.319C126.955 102.319 127.205 102.358 127.416 102.437C127.628 102.51 127.803 102.592 127.941 102.683C128.086 102.774 128.195 102.859 128.267 102.938C128.34 103.016 128.379 103.059 128.385 103.065L128.475 103.156L128.421 103.274C128.312 103.608 128.228 103.936 128.168 104.257C128.113 104.573 128.086 104.892 128.086 105.213C128.086 105.468 128.101 105.717 128.131 105.96C128.168 106.196 128.222 106.436 128.294 106.679V106.815C128.107 107.477 128.014 108.111 128.014 108.718C128.014 109.027 128.038 109.331 128.086 109.628C128.134 109.919 128.21 110.211 128.312 110.502L128.349 110.584L128.312 110.657C128.228 110.869 128.162 111.088 128.113 111.312C128.065 111.531 128.026 111.752 127.996 111.977C128.056 111.964 128.119 111.955 128.186 111.949C128.252 111.937 128.312 111.925 128.367 111.913C128.433 111.901 128.497 111.892 128.557 111.886L128.629 111.849L128.702 111.886C129.028 112.007 129.35 112.101 129.67 112.168C129.996 112.228 130.328 112.259 130.666 112.259C130.925 112.259 131.188 112.241 131.453 112.204C131.719 112.162 131.987 112.098 132.259 112.013L132.395 111.977L132.485 112.049C132.491 112.055 132.528 112.092 132.594 112.159C132.66 112.219 132.73 112.316 132.802 112.45C132.881 112.577 132.953 112.741 133.019 112.941C133.086 113.142 133.122 113.378 133.128 113.651Z" fill="white"/>
<path d="M149.848 110.675C149.884 110.875 149.903 111.06 149.903 111.23C149.903 111.418 149.884 111.588 149.848 111.74C149.812 111.886 149.77 112.013 149.722 112.122C149.679 112.225 149.637 112.31 149.595 112.377C149.559 112.438 149.537 112.471 149.531 112.477L149.459 112.577L149.332 112.559C149.248 112.547 149.163 112.541 149.079 112.541C148.994 112.541 148.91 112.541 148.825 112.541C148.91 112.838 149.015 113.127 149.142 113.406C149.269 113.685 149.411 113.955 149.568 114.216L149.667 114.362L149.55 114.498C149.544 114.504 149.51 114.537 149.45 114.598C149.396 114.653 149.311 114.72 149.197 114.798C149.082 114.871 148.934 114.95 148.753 115.035C148.578 115.12 148.37 115.19 148.128 115.244C148.014 115.275 147.899 115.299 147.784 115.317C147.676 115.329 147.567 115.336 147.459 115.336C147.302 115.336 147.157 115.323 147.024 115.299C146.897 115.275 146.789 115.248 146.698 115.217C146.608 115.181 146.535 115.15 146.481 115.126C146.433 115.102 146.406 115.09 146.4 115.09L146.273 115.017L146.291 114.871C146.291 114.792 146.294 114.717 146.3 114.644C146.306 114.571 146.309 114.495 146.309 114.416C146.309 113.997 146.273 113.582 146.2 113.169C146.176 113.193 146.155 113.205 146.137 113.205L146.01 113.242C145.63 113.242 145.241 113.266 144.843 113.315C144.444 113.363 144.049 113.451 143.657 113.579V113.861C143.657 114.122 143.675 114.383 143.711 114.644L143.729 114.735L143.675 114.808C143.669 114.814 143.639 114.847 143.584 114.908C143.53 114.968 143.446 115.035 143.331 115.108C143.216 115.181 143.072 115.248 142.897 115.308C142.722 115.363 142.51 115.39 142.263 115.39C141.78 115.39 141.397 115.32 141.113 115.181C140.836 115.041 140.622 114.883 140.471 114.707C140.296 114.507 140.178 114.28 140.118 114.025L140.1 113.952L140.154 113.879C140.462 113.406 140.688 112.902 140.833 112.368C140.984 111.828 141.059 111.245 141.059 110.62V110.302L141.095 110.192C141.331 109.719 141.503 109.249 141.611 108.782C141.726 108.308 141.783 107.832 141.783 107.352C141.783 107.231 141.78 107.11 141.774 106.988C141.768 106.867 141.759 106.746 141.747 106.624L141.729 106.533L141.783 106.46C142.363 105.568 142.652 104.603 142.652 103.566C142.652 103.475 142.649 103.381 142.643 103.283C142.637 103.18 142.628 103.077 142.616 102.974V102.865L142.697 102.783C142.703 102.777 142.734 102.756 142.788 102.719C142.848 102.677 142.93 102.634 143.032 102.592C143.135 102.543 143.259 102.501 143.403 102.464C143.554 102.428 143.726 102.41 143.919 102.41C144.294 102.41 144.61 102.467 144.87 102.583C145.135 102.698 145.35 102.825 145.512 102.965C145.675 103.104 145.793 103.232 145.866 103.347C145.944 103.463 145.986 103.523 145.992 103.529L146.047 103.648L145.992 103.757C145.968 103.781 145.956 103.799 145.956 103.811H146.083C146.348 103.811 146.556 103.83 146.707 103.866C146.864 103.902 146.949 103.921 146.961 103.921L147.069 104.003L147.051 104.13C147.039 104.203 147.033 104.276 147.033 104.349C147.033 104.415 147.033 104.485 147.033 104.558C147.033 105.638 147.287 106.627 147.794 107.525L147.83 107.635V107.88C147.83 108.196 147.842 108.499 147.866 108.791C147.89 109.076 147.938 109.349 148.011 109.61C148.131 109.561 148.249 109.51 148.364 109.455C148.478 109.401 148.59 109.34 148.699 109.273L148.789 109.218L148.907 109.255C148.913 109.261 148.952 109.288 149.025 109.337C149.103 109.385 149.19 109.464 149.287 109.573C149.39 109.683 149.492 109.828 149.595 110.01C149.703 110.186 149.788 110.408 149.848 110.675ZM144.969 108.345L144.843 107.917C144.704 108.281 144.601 108.642 144.535 109C144.469 109.358 144.435 109.71 144.435 110.056V110.302C144.695 110.211 144.942 110.104 145.178 109.983L145.322 109.947C145.365 109.959 145.407 109.968 145.449 109.974C145.491 109.98 145.531 109.983 145.567 109.983C145.5 109.722 145.416 109.458 145.313 109.191C145.217 108.918 145.102 108.636 144.969 108.345Z" fill="white"/>
<path d="M165.229 112.741C165.229 112.759 165.226 112.82 165.22 112.923C165.214 113.026 165.181 113.157 165.12 113.315C165.066 113.466 164.972 113.633 164.84 113.815C164.707 113.997 164.511 114.173 164.251 114.343C164.185 114.483 164.119 114.592 164.052 114.671C163.986 114.75 163.947 114.795 163.934 114.808L163.862 114.908L163.726 114.889C163.515 114.859 163.328 114.835 163.165 114.817C163.008 114.798 162.863 114.789 162.731 114.789C162.592 114.789 162.462 114.798 162.341 114.817C162.221 114.835 162.097 114.862 161.97 114.899C161.85 114.935 161.72 114.984 161.581 115.044C161.448 115.099 161.3 115.166 161.138 115.244L161.002 115.263C160.845 115.263 160.691 115.257 160.54 115.244C160.395 115.226 160.266 115.217 160.151 115.217C159.988 115.217 159.84 115.226 159.707 115.244C159.581 115.263 159.454 115.293 159.327 115.336C159.2 115.378 159.065 115.433 158.92 115.499C158.775 115.566 158.606 115.648 158.413 115.745L158.313 115.8L158.241 115.782C158.012 115.703 157.81 115.581 157.635 115.417C157.484 115.278 157.345 115.081 157.218 114.826C157.097 114.571 157.037 114.237 157.037 113.824C157.037 113.57 157.07 113.354 157.137 113.178C157.209 113.002 157.288 112.86 157.372 112.75C157.463 112.641 157.544 112.562 157.616 112.514C157.689 112.459 157.731 112.429 157.743 112.423L157.816 112.368L157.906 112.386C158.093 112.423 158.256 112.45 158.395 112.468C158.534 112.486 158.663 112.495 158.784 112.495C158.893 112.495 158.998 112.489 159.101 112.477C159.209 112.459 159.324 112.435 159.445 112.404C159.566 112.368 159.698 112.326 159.843 112.277C159.994 112.222 160.172 112.159 160.377 112.086L160.45 112.049L160.522 112.068C160.806 112.128 161.059 112.168 161.282 112.186C161.21 112.071 161.122 111.958 161.02 111.849C160.923 111.734 160.821 111.616 160.712 111.494L160.649 111.403C160.564 111.094 160.471 110.811 160.368 110.557C160.266 110.296 160.145 110.053 160.006 109.828C159.873 109.604 159.722 109.391 159.553 109.191C159.384 108.991 159.194 108.794 158.983 108.599L158.911 108.545V108.472C158.808 107.853 158.621 107.289 158.35 106.779C158.078 106.263 157.716 105.796 157.263 105.377L157.182 105.304V105.195C157.182 105.189 157.188 105.162 157.2 105.113C157.212 105.065 157.233 105.001 157.263 104.922C157.294 104.843 157.339 104.752 157.399 104.649C157.46 104.546 157.538 104.44 157.635 104.33C157.622 104.3 157.616 104.273 157.616 104.248C157.616 104.224 157.616 104.197 157.616 104.166C157.616 103.912 157.65 103.696 157.716 103.52C157.788 103.344 157.867 103.202 157.951 103.092C158.036 102.983 158.114 102.904 158.187 102.856C158.259 102.801 158.301 102.771 158.313 102.765L158.395 102.728L158.485 102.746C158.823 102.825 159.107 102.865 159.336 102.865C159.445 102.865 159.547 102.859 159.644 102.847C159.741 102.828 159.843 102.804 159.952 102.774C160.066 102.737 160.19 102.698 160.323 102.655C160.456 102.613 160.609 102.564 160.784 102.51C160.815 102.498 160.842 102.489 160.866 102.482C160.89 102.47 160.917 102.455 160.947 102.437L161.02 102.391L161.101 102.41C161.325 102.458 161.521 102.495 161.69 102.519C161.865 102.537 162.025 102.546 162.169 102.546C162.441 102.546 162.703 102.507 162.957 102.428C163.21 102.349 163.518 102.228 163.88 102.064L163.989 102L164.097 102.064C164.103 102.07 164.143 102.097 164.215 102.146C164.294 102.194 164.381 102.273 164.478 102.382C164.574 102.492 164.671 102.634 164.767 102.81C164.864 102.986 164.933 103.202 164.975 103.456C164.987 103.523 164.997 103.593 165.003 103.666C165.009 103.733 165.012 103.793 165.012 103.848C165.012 104.054 164.987 104.239 164.939 104.403C164.891 104.561 164.837 104.697 164.776 104.813C164.716 104.922 164.659 105.01 164.604 105.077C164.556 105.137 164.529 105.171 164.523 105.177L164.432 105.25L164.306 105.231C164.1 105.201 163.916 105.18 163.753 105.168C163.597 105.15 163.452 105.14 163.319 105.14C163.18 105.14 163.05 105.15 162.93 105.168C162.809 105.18 162.685 105.204 162.559 105.241C162.438 105.277 162.308 105.326 162.169 105.386C162.031 105.441 161.877 105.508 161.708 105.586L161.653 105.623L161.581 105.605C161.43 105.605 161.294 105.602 161.174 105.596C161.053 105.59 160.941 105.586 160.839 105.586C160.959 105.793 161.092 105.99 161.237 106.178C161.388 106.36 161.557 106.536 161.744 106.706L161.798 106.797C161.889 107.125 161.985 107.425 162.088 107.698C162.191 107.965 162.308 108.214 162.441 108.445C162.574 108.669 162.725 108.882 162.894 109.082C163.069 109.282 163.268 109.476 163.491 109.664L163.563 109.801C163.624 110.117 163.693 110.402 163.772 110.657C163.856 110.906 163.959 111.139 164.079 111.358C164.206 111.576 164.354 111.785 164.523 111.986C164.698 112.186 164.909 112.389 165.156 112.596L165.211 112.65L165.229 112.741Z" fill="white"/>
<path d="M180.863 112.741C180.863 112.759 180.86 112.82 180.854 112.923C180.848 113.026 180.815 113.157 180.754 113.315C180.7 113.466 180.606 113.633 180.474 113.815C180.341 113.997 180.145 114.173 179.885 114.343C179.819 114.483 179.753 114.592 179.686 114.671C179.62 114.75 179.581 114.795 179.569 114.808L179.496 114.908L179.36 114.889C179.149 114.859 178.962 114.835 178.799 114.817C178.642 114.798 178.497 114.789 178.365 114.789C178.226 114.789 178.096 114.798 177.975 114.817C177.855 114.835 177.731 114.862 177.604 114.899C177.484 114.935 177.354 114.984 177.215 115.044C177.082 115.099 176.935 115.166 176.772 115.244L176.636 115.263C176.479 115.263 176.325 115.257 176.174 115.244C176.029 115.226 175.9 115.217 175.785 115.217C175.622 115.217 175.474 115.226 175.341 115.244C175.215 115.263 175.088 115.293 174.961 115.336C174.835 115.378 174.699 115.433 174.554 115.499C174.409 115.566 174.24 115.648 174.047 115.745L173.947 115.8L173.875 115.782C173.646 115.703 173.444 115.581 173.269 115.417C173.118 115.278 172.979 115.081 172.852 114.826C172.732 114.571 172.671 114.237 172.671 113.824C172.671 113.57 172.704 113.354 172.771 113.178C172.843 113.002 172.922 112.86 173.006 112.75C173.097 112.641 173.178 112.562 173.25 112.514C173.323 112.459 173.365 112.429 173.377 112.423L173.45 112.368L173.54 112.386C173.727 112.423 173.89 112.45 174.029 112.468C174.168 112.486 174.297 112.495 174.418 112.495C174.527 112.495 174.632 112.489 174.735 112.477C174.844 112.459 174.958 112.435 175.079 112.404C175.2 112.368 175.332 112.326 175.477 112.277C175.628 112.222 175.806 112.159 176.011 112.086L176.084 112.049L176.156 112.068C176.44 112.128 176.693 112.168 176.916 112.186C176.844 112.071 176.756 111.958 176.654 111.849C176.557 111.734 176.455 111.616 176.346 111.494L176.283 111.403C176.198 111.094 176.105 110.811 176.002 110.557C175.9 110.296 175.779 110.053 175.64 109.828C175.507 109.604 175.356 109.391 175.188 109.191C175.019 108.991 174.828 108.794 174.617 108.599L174.545 108.545V108.472C174.442 107.853 174.255 107.289 173.984 106.779C173.712 106.263 173.35 105.796 172.897 105.377L172.816 105.304V105.195C172.816 105.189 172.822 105.162 172.834 105.113C172.846 105.065 172.867 105.001 172.897 104.922C172.928 104.843 172.973 104.752 173.033 104.649C173.094 104.546 173.172 104.44 173.269 104.33C173.257 104.3 173.25 104.273 173.25 104.248C173.25 104.224 173.25 104.197 173.25 104.166C173.25 103.912 173.284 103.696 173.35 103.52C173.422 103.344 173.501 103.202 173.585 103.092C173.67 102.983 173.748 102.904 173.821 102.856C173.893 102.801 173.935 102.771 173.947 102.765L174.029 102.728L174.119 102.746C174.457 102.825 174.741 102.865 174.97 102.865C175.079 102.865 175.181 102.859 175.278 102.847C175.375 102.828 175.477 102.804 175.586 102.774C175.7 102.737 175.824 102.698 175.957 102.655C176.09 102.613 176.244 102.564 176.419 102.51C176.449 102.498 176.476 102.489 176.5 102.482C176.524 102.47 176.551 102.455 176.581 102.437L176.654 102.391L176.735 102.41C176.959 102.458 177.155 102.495 177.324 102.519C177.499 102.537 177.659 102.546 177.803 102.546C178.075 102.546 178.338 102.507 178.591 102.428C178.844 102.349 179.152 102.228 179.514 102.064L179.623 102L179.731 102.064C179.738 102.07 179.777 102.097 179.849 102.146C179.928 102.194 180.015 102.273 180.112 102.382C180.208 102.492 180.305 102.634 180.401 102.81C180.498 102.986 180.567 103.202 180.609 103.456C180.622 103.523 180.631 103.593 180.637 103.666C180.643 103.733 180.646 103.793 180.646 103.848C180.646 104.054 180.622 104.239 180.573 104.403C180.525 104.561 180.471 104.697 180.41 104.813C180.35 104.922 180.293 105.01 180.238 105.077C180.19 105.137 180.163 105.171 180.157 105.177L180.066 105.25L179.94 105.231C179.734 105.201 179.55 105.18 179.388 105.168C179.231 105.15 179.086 105.14 178.953 105.14C178.814 105.14 178.684 105.15 178.564 105.168C178.443 105.18 178.319 105.204 178.193 105.241C178.072 105.277 177.942 105.326 177.803 105.386C177.665 105.441 177.511 105.508 177.342 105.586L177.288 105.623L177.215 105.605C177.064 105.605 176.928 105.602 176.808 105.596C176.687 105.59 176.575 105.586 176.473 105.586C176.594 105.793 176.726 105.99 176.871 106.178C177.022 106.36 177.191 106.536 177.378 106.706L177.432 106.797C177.523 107.125 177.619 107.425 177.722 107.698C177.825 107.965 177.942 108.214 178.075 108.445C178.208 108.669 178.359 108.882 178.528 109.082C178.703 109.282 178.902 109.476 179.125 109.664L179.197 109.801C179.258 110.117 179.327 110.402 179.406 110.657C179.49 110.906 179.593 111.139 179.713 111.358C179.84 111.576 179.988 111.785 180.157 111.986C180.332 112.186 180.543 112.389 180.791 112.596L180.845 112.65L180.863 112.741Z" fill="white"/>
<path d="M195.592 108.991C195.592 109.264 195.556 109.504 195.483 109.71C195.411 109.91 195.329 110.08 195.239 110.22C195.148 110.359 195.064 110.466 194.985 110.538C194.913 110.611 194.874 110.651 194.868 110.657L194.777 110.73L194.65 110.693C194.313 110.578 194.014 110.493 193.754 110.438C193.501 110.384 193.247 110.356 192.994 110.356C192.807 110.356 192.623 110.375 192.442 110.411L192.496 110.52L192.532 110.602L192.496 110.675C192.351 111.088 192.252 111.497 192.197 111.904C192.294 111.879 192.403 111.858 192.523 111.84C192.644 111.822 192.759 111.807 192.867 111.795C192.976 111.782 193.066 111.773 193.139 111.767C193.211 111.761 193.25 111.758 193.257 111.758L193.329 111.731L193.401 111.776C193.745 111.916 194.038 112.022 194.279 112.095C194.521 112.168 194.765 112.204 195.013 112.204C195.181 112.204 195.366 112.186 195.565 112.15C195.764 112.113 195.99 112.062 196.244 111.995L196.352 111.958L196.443 112.031C196.449 112.043 196.482 112.083 196.542 112.15C196.609 112.21 196.678 112.307 196.75 112.441C196.823 112.568 196.889 112.732 196.95 112.932C197.01 113.127 197.04 113.36 197.04 113.633C197.034 113.906 196.992 114.143 196.913 114.343C196.835 114.544 196.75 114.713 196.66 114.853C196.569 114.987 196.485 115.09 196.406 115.163C196.328 115.235 196.286 115.275 196.28 115.281L196.162 115.336L196.053 115.299C195.697 115.166 195.402 115.072 195.166 115.017C194.931 114.956 194.702 114.926 194.478 114.926C194.322 114.926 194.159 114.941 193.99 114.971C193.821 114.996 193.625 115.035 193.401 115.09H193.275C193.106 115.059 192.937 115.026 192.768 114.99C192.605 114.947 192.439 114.908 192.27 114.871C192.21 114.938 192.131 115.011 192.035 115.09C191.944 115.163 191.829 115.229 191.691 115.29C191.558 115.351 191.401 115.399 191.22 115.436C191.045 115.478 190.846 115.499 190.622 115.499C190.266 115.499 189.971 115.451 189.735 115.354C189.506 115.257 189.322 115.15 189.183 115.035C189.05 114.914 188.957 114.805 188.903 114.707C188.848 114.604 188.821 114.547 188.821 114.534L188.785 114.462L188.821 114.362C188.96 114.028 189.063 113.685 189.129 113.333C189.195 112.981 189.229 112.623 189.229 112.259C189.229 112.004 189.213 111.746 189.183 111.485C189.159 111.224 189.114 110.954 189.047 110.675V110.557C189.12 110.259 189.177 109.968 189.219 109.683C189.268 109.391 189.292 109.1 189.292 108.809C189.292 108.487 189.265 108.172 189.21 107.862C189.156 107.553 189.084 107.246 188.993 106.943L188.975 106.852L189.011 106.779C189.144 106.451 189.241 106.124 189.301 105.796C189.367 105.462 189.4 105.131 189.4 104.804C189.4 104.537 189.379 104.273 189.337 104.012C189.301 103.745 189.241 103.475 189.156 103.202L189.12 103.083L189.192 102.992C189.198 102.986 189.235 102.95 189.301 102.883C189.367 102.81 189.467 102.734 189.6 102.655C189.738 102.57 189.91 102.498 190.116 102.437C190.321 102.37 190.565 102.337 190.849 102.337C191.175 102.337 191.452 102.382 191.682 102.473C191.911 102.564 192.095 102.661 192.234 102.765C192.409 102.746 192.593 102.719 192.786 102.683C192.979 102.646 193.172 102.595 193.365 102.528L193.438 102.492L193.537 102.51C193.827 102.601 194.077 102.671 194.288 102.719C194.506 102.762 194.711 102.783 194.904 102.783C195.115 102.783 195.335 102.756 195.565 102.701C195.794 102.646 196.063 102.564 196.37 102.455L196.479 102.41L196.578 102.473C196.585 102.479 196.624 102.513 196.696 102.573C196.769 102.634 196.847 102.728 196.931 102.856C197.016 102.977 197.094 103.135 197.167 103.329C197.245 103.517 197.294 103.748 197.312 104.021V104.185C197.312 104.427 197.281 104.643 197.221 104.831C197.161 105.019 197.091 105.18 197.013 105.313C196.941 105.441 196.871 105.538 196.805 105.605C196.744 105.671 196.711 105.708 196.705 105.714L196.615 105.787L196.479 105.75C196.189 105.684 195.942 105.635 195.737 105.605C195.531 105.568 195.341 105.55 195.166 105.55C194.961 105.55 194.756 105.574 194.551 105.623C194.352 105.665 194.11 105.732 193.827 105.823L193.7 105.841C193.447 105.793 193.202 105.756 192.967 105.732C192.738 105.708 192.505 105.696 192.27 105.696C192.288 105.866 192.312 106.036 192.342 106.205C192.378 106.369 192.424 106.536 192.478 106.706V106.834C192.442 106.943 192.412 107.052 192.388 107.161C192.369 107.264 192.351 107.374 192.333 107.489C192.508 107.537 192.671 107.571 192.822 107.589C192.979 107.607 193.142 107.616 193.311 107.616C193.534 107.616 193.76 107.598 193.99 107.562C194.219 107.519 194.469 107.456 194.741 107.371L194.85 107.334L194.94 107.407C194.946 107.413 194.982 107.45 195.049 107.516C195.121 107.577 195.197 107.674 195.275 107.808C195.36 107.935 195.432 108.099 195.492 108.299C195.559 108.493 195.592 108.724 195.592 108.991Z" fill="white"/>
<path d="M213 112.741C213 112.759 212.997 112.82 212.991 112.923C212.985 113.026 212.952 113.157 212.891 113.315C212.837 113.466 212.744 113.633 212.611 113.815C212.478 113.997 212.282 114.173 212.022 114.343C211.956 114.483 211.89 114.592 211.823 114.671C211.757 114.75 211.718 114.795 211.706 114.808L211.633 114.908L211.497 114.889C211.286 114.859 211.099 114.835 210.936 114.817C210.779 114.798 210.635 114.789 210.502 114.789C210.363 114.789 210.233 114.798 210.113 114.817C209.992 114.835 209.868 114.862 209.741 114.899C209.621 114.935 209.491 114.984 209.352 115.044C209.219 115.099 209.072 115.166 208.909 115.244L208.773 115.263C208.616 115.263 208.462 115.257 208.311 115.244C208.166 115.226 208.037 115.217 207.922 115.217C207.759 115.217 207.611 115.226 207.478 115.244C207.352 115.263 207.225 115.293 207.098 115.336C206.972 115.378 206.836 115.433 206.691 115.499C206.546 115.566 206.377 115.648 206.184 115.745L206.085 115.8L206.012 115.782C205.783 115.703 205.581 115.581 205.406 115.417C205.255 115.278 205.116 115.081 204.989 114.826C204.869 114.571 204.808 114.237 204.808 113.824C204.808 113.57 204.841 113.354 204.908 113.178C204.98 113.002 205.059 112.86 205.143 112.75C205.234 112.641 205.315 112.562 205.388 112.514C205.46 112.459 205.502 112.429 205.514 112.423L205.587 112.368L205.677 112.386C205.864 112.423 206.027 112.45 206.166 112.468C206.305 112.486 206.435 112.495 206.555 112.495C206.664 112.495 206.769 112.489 206.872 112.477C206.981 112.459 207.095 112.435 207.216 112.404C207.337 112.368 207.469 112.326 207.614 112.277C207.765 112.222 207.943 112.159 208.148 112.086L208.221 112.049L208.293 112.068C208.577 112.128 208.83 112.168 209.053 112.186C208.981 112.071 208.894 111.958 208.791 111.849C208.694 111.734 208.592 111.616 208.483 111.494L208.42 111.403C208.335 111.094 208.242 110.811 208.139 110.557C208.037 110.296 207.916 110.053 207.777 109.828C207.644 109.604 207.494 109.391 207.325 109.191C207.156 108.991 206.966 108.794 206.754 108.599L206.682 108.545V108.472C206.579 107.853 206.392 107.289 206.121 106.779C205.849 106.263 205.487 105.796 205.035 105.377L204.953 105.304V105.195C204.953 105.189 204.959 105.162 204.971 105.113C204.983 105.065 205.004 105.001 205.035 104.922C205.065 104.843 205.11 104.752 205.17 104.649C205.231 104.546 205.309 104.44 205.406 104.33C205.394 104.3 205.388 104.273 205.388 104.248C205.388 104.224 205.388 104.197 205.388 104.166C205.388 103.912 205.421 103.696 205.487 103.52C205.56 103.344 205.638 103.202 205.722 103.092C205.807 102.983 205.885 102.904 205.958 102.856C206.03 102.801 206.072 102.771 206.085 102.765L206.166 102.728L206.257 102.746C206.594 102.825 206.878 102.865 207.107 102.865C207.216 102.865 207.319 102.859 207.415 102.847C207.512 102.828 207.614 102.804 207.723 102.774C207.838 102.737 207.961 102.698 208.094 102.655C208.227 102.613 208.381 102.564 208.556 102.51C208.586 102.498 208.613 102.489 208.637 102.482C208.661 102.47 208.688 102.455 208.719 102.437L208.791 102.391L208.872 102.41C209.096 102.458 209.292 102.495 209.461 102.519C209.636 102.537 209.796 102.546 209.941 102.546C210.212 102.546 210.475 102.507 210.728 102.428C210.981 102.349 211.289 102.228 211.651 102.064L211.76 102L211.869 102.064C211.875 102.07 211.914 102.097 211.986 102.146C212.065 102.194 212.152 102.273 212.249 102.382C212.345 102.492 212.442 102.634 212.538 102.81C212.635 102.986 212.704 103.202 212.747 103.456C212.759 103.523 212.768 103.593 212.774 103.666C212.78 103.733 212.783 103.793 212.783 103.848C212.783 104.054 212.759 104.239 212.71 104.403C212.662 104.561 212.608 104.697 212.547 104.813C212.487 104.922 212.43 105.01 212.375 105.077C212.327 105.137 212.3 105.171 212.294 105.177L212.203 105.25L212.077 105.231C211.872 105.201 211.688 105.18 211.525 105.168C211.368 105.15 211.223 105.14 211.09 105.14C210.951 105.14 210.822 105.15 210.701 105.168C210.58 105.18 210.456 105.204 210.33 105.241C210.209 105.277 210.079 105.326 209.941 105.386C209.802 105.441 209.648 105.508 209.479 105.586L209.425 105.623L209.352 105.605C209.201 105.605 209.066 105.602 208.945 105.596C208.824 105.59 208.713 105.586 208.61 105.586C208.731 105.793 208.863 105.99 209.008 106.178C209.159 106.36 209.328 106.536 209.515 106.706L209.569 106.797C209.66 107.125 209.756 107.425 209.859 107.698C209.962 107.965 210.079 108.214 210.212 108.445C210.345 108.669 210.496 108.882 210.665 109.082C210.84 109.282 211.039 109.476 211.262 109.664L211.334 109.801C211.395 110.117 211.464 110.402 211.543 110.657C211.627 110.906 211.73 111.139 211.85 111.358C211.977 111.576 212.125 111.785 212.294 111.986C212.469 112.186 212.68 112.389 212.928 112.596L212.982 112.65L213 112.741Z" fill="white"/>
</g>
<rect x="1.5" y="25.5" width="267" height="120" rx="10.5" stroke="white" stroke-width="3"/>
<path d="M34 13.5H236C241.799 13.5 246.5 18.201 246.5 24V25.5H23.5V24C23.5 18.201 28.201 13.5 34 13.5Z" stroke="white" stroke-width="3"/>
<path d="M62 1.5H208C213.799 1.5 218.5 6.20101 218.5 12V13.5H51.5V12C51.5 6.20101 56.201 1.5 62 1.5Z" stroke="white" stroke-width="3"/>
<circle cx="265" cy="30" r="17.5" fill="url(#paint0_linear_1200_12253)" stroke="black"/>
<path d="M262.659 24.3636V36H259.499V27.2727H259.431L256.886 28.7955V26.1136L259.749 24.3636H262.659ZM265.248 36V33.7273L269.589 30.1364C269.877 29.8977 270.123 29.6742 270.327 29.4659C270.536 29.2538 270.695 29.036 270.805 28.8125C270.918 28.589 270.975 28.3409 270.975 28.0682C270.975 27.7689 270.911 27.5133 270.782 27.3011C270.657 27.089 270.483 26.9261 270.259 26.8125C270.036 26.6951 269.778 26.6364 269.486 26.6364C269.195 26.6364 268.937 26.6951 268.714 26.8125C268.494 26.9299 268.323 27.1023 268.202 27.3295C268.081 27.5568 268.02 27.8333 268.02 28.1591H265.02C265.02 27.3409 265.204 26.6364 265.572 26.0455C265.939 25.4545 266.458 25 267.128 24.6818C267.799 24.3636 268.585 24.2045 269.486 24.2045C270.418 24.2045 271.225 24.3542 271.907 24.6534C272.592 24.9489 273.121 25.3655 273.492 25.9034C273.867 26.4413 274.055 27.072 274.055 27.7955C274.055 28.2424 273.962 28.6875 273.776 29.1307C273.591 29.5701 273.257 30.0568 272.776 30.5909C272.295 31.125 271.611 31.7614 270.725 32.5L269.634 33.4091V33.4773H274.18V36H265.248Z" fill="white"/>
<defs>
<linearGradient id="paint0_linear_1200_12253" x1="283.612" y1="33.9858" x2="193.184" y2="15.1119" gradientUnits="userSpaceOnUse">
<stop stop-color="#1900FF"/>
<stop offset="1" stop-color="#EA85FE"/>
</linearGradient>
</defs>
</svg>
