<svg width="124" height="129" viewBox="0 0 124 129" fill="none" xmlns="http://www.w3.org/2000/svg">
<path d="M87.7179 105.887L36.2821 105.887C33.3985 105.887 30.671 104.577 28.868 102.327L3.58596 70.7703C2.23575 69.0849 1.5 66.9899 1.5 64.8304L1.50001 56.641C1.50001 54.9734 1.93896 53.3352 2.77276 51.891L29.1236 6.24999C30.8206 3.31068 33.9568 1.5 37.3509 1.5L86.6491 1.5C90.0432 1.5 93.1794 3.31069 94.8764 6.25L121.227 51.891C122.061 53.3352 122.5 54.9734 122.5 56.641L122.5 64.8304C122.5 66.9899 121.764 69.0849 120.414 70.7703L95.1319 102.327C93.329 104.577 90.6015 105.887 87.7179 105.887Z" fill="#701BFB" fill-opacity="0.3" stroke="white" stroke-width="3"/>
<path d="M119.526 71.4434L94.8764 114.137C93.1794 117.076 90.0432 118.887 86.6491 118.887L37.3509 118.887C33.9568 118.887 30.8206 117.076 29.1236 114.137L4.47447 71.4434C2.77746 68.504 2.77746 64.8827 4.47447 61.9434L29.1236 19.2498C30.8206 16.3105 33.9568 14.4998 37.3509 14.4998L86.6492 14.4998C90.0432 14.4998 93.1794 16.3105 94.8764 19.2498L119.526 61.9434C121.223 64.8827 121.223 68.5041 119.526 71.4434Z" fill="black" stroke="white" stroke-width="3"/>
<path d="M42.1874 57.9531L45.6658 61.4316V67.8087L42.1874 71.2871H32.3319V67.8087H40.4482L42.1874 66.0695V63.1708L40.4482 61.4316H28.8534V74.7655H25.375V57.9531H42.1874Z" fill="white"/>
<path d="M70.5945 63.1708V64.91L66.5364 68.9681L70.5945 73.0263V74.7655H67.1161L63.6377 71.2871H60.739L57.2606 74.7655H53.7821V73.0263L57.8403 68.9681L53.7821 64.91V63.1708H57.2606L60.739 66.6492H63.6377L67.1161 63.1708H70.5945Z" fill="white"/>
<path d="M95.5233 57.9531H99.0017V74.7655H92.0448L88.5664 71.2871V69.5479H92.0448L93.784 71.2871H95.5233V57.9531ZM92.0448 66.0695H88.5664L83.9285 61.4316H82.1893V74.7655H78.7109V57.9531H85.6677L92.0448 64.3302V66.0695Z" fill="white"/>
<path d="M68.8124 83.6934H72.2908V100.506H65.334L61.8555 97.0273V95.2881H65.334L67.0732 97.0273H68.8124V83.6934ZM65.334 91.8097H61.8555L57.2176 87.1718H55.4784V100.506H52V83.6934H58.9569L65.334 90.0705V91.8097Z" fill="white"/>
<path d="M68.8124 34.6934L72.2908 38.1718V44.5489L68.8124 48.0273H58.9569V44.5489H67.0732L68.8124 42.8097V39.911L67.0732 38.1718H55.4784V51.5058H52V34.6934H68.8124Z" fill="white"/>
</svg>
