<svg width="159" height="99" viewBox="0 0 159 99" fill="none" xmlns="http://www.w3.org/2000/svg">
<path d="M6.44101 93.21C5.44701 93.21 4.58601 93.021 3.85801 92.643C3.13001 92.265 2.56301 91.733 2.15701 91.047C1.76501 90.361 1.56901 89.556 1.56901 88.632V82.038C1.56901 81.114 1.76501 80.309 2.15701 79.623C2.56301 78.937 3.13001 78.405 3.85801 78.027C4.58601 77.649 5.44701 77.46 6.44101 77.46C7.44901 77.46 8.31001 77.649 9.02401 78.027C9.75201 78.405 10.312 78.937 10.704 79.623C11.11 80.309 11.313 81.114 11.313 82.038V88.632C11.313 89.556 11.11 90.361 10.704 91.047C10.312 91.733 9.75201 92.265 9.02401 92.643C8.29601 93.021 7.43501 93.21 6.44101 93.21ZM6.44101 90.942C7.16901 90.942 7.75001 90.732 8.18401 90.312C8.61801 89.892 8.83501 89.332 8.83501 88.632V82.038C8.83501 81.338 8.61801 80.778 8.18401 80.358C7.75001 79.938 7.16901 79.728 6.44101 79.728C5.71301 79.728 5.13201 79.938 4.69801 80.358C4.26401 80.778 4.04701 81.338 4.04701 82.038V88.632C4.04701 89.332 4.26401 89.892 4.69801 90.312C5.13201 90.732 5.71301 90.942 6.44101 90.942ZM6.44101 86.7C6.03501 86.7 5.69901 86.567 5.43301 86.301C5.18101 86.035 5.05501 85.692 5.05501 85.272C5.05501 84.852 5.18101 84.516 5.43301 84.264C5.68501 84.012 6.02101 83.886 6.44101 83.886C6.86101 83.886 7.19701 84.012 7.44901 84.264C7.70101 84.516 7.82701 84.852 7.82701 85.272C7.82701 85.692 7.70101 86.035 7.44901 86.301C7.19701 86.567 6.86101 86.7 6.44101 86.7ZM13.6888 93L17.7208 87.036L13.9618 81.45H16.9228L18.7078 84.285C18.8198 84.453 18.9178 84.642 19.0018 84.852C19.0998 85.062 19.1768 85.23 19.2328 85.356C19.2888 85.23 19.3658 85.062 19.4638 84.852C19.5618 84.642 19.6598 84.453 19.7578 84.285L21.5638 81.45H24.5248L20.7658 87.036L24.7768 93H21.7948L19.7998 89.829C19.6878 89.647 19.5828 89.451 19.4848 89.241C19.3868 89.031 19.3028 88.863 19.2328 88.737C19.1768 88.863 19.0998 89.031 19.0018 89.241C18.9038 89.451 18.7988 89.647 18.6868 89.829L16.6498 93H13.6888ZM33.9146 93V89.955H27.0896V86.154L32.9906 77.67H35.9306L29.6096 86.847V87.645H33.9146V84.18H36.5396V93H33.9146ZM40.1754 93V90.459L44.9634 85.65C45.6354 84.964 46.1324 84.348 46.4544 83.802C46.7764 83.242 46.9374 82.668 46.9374 82.08C46.9374 81.366 46.7414 80.813 46.3494 80.421C45.9574 80.015 45.4254 79.812 44.7534 79.812C44.0114 79.812 43.4304 80.029 43.0104 80.463C42.5904 80.883 42.3804 81.471 42.3804 82.227H39.7554C39.7694 81.247 39.9794 80.407 40.3854 79.707C40.8054 78.993 41.3934 78.44 42.1494 78.048C42.9054 77.656 43.7874 77.46 44.7954 77.46C45.7614 77.46 46.6014 77.642 47.3154 78.006C48.0294 78.37 48.5824 78.881 48.9744 79.539C49.3664 80.197 49.5624 80.981 49.5624 81.891C49.5624 82.829 49.3174 83.746 48.8274 84.642C48.3514 85.524 47.5814 86.476 46.5174 87.498L43.3254 90.627H49.7514V93H40.1754ZM57.6082 93.21C56.6142 93.21 55.7532 93.021 55.0252 92.643C54.2972 92.265 53.7302 91.733 53.3242 91.047C52.9322 90.361 52.7362 89.556 52.7362 88.632V82.038C52.7362 81.114 52.9322 80.309 53.3242 79.623C53.7302 78.937 54.2972 78.405 55.0252 78.027C55.7532 77.649 56.6142 77.46 57.6082 77.46C58.6162 77.46 59.4772 77.649 60.1912 78.027C60.9192 78.405 61.4792 78.937 61.8712 79.623C62.2772 80.309 62.4802 81.114 62.4802 82.038V88.632C62.4802 89.556 62.2772 90.361 61.8712 91.047C61.4792 91.733 60.9192 92.265 60.1912 92.643C59.4632 93.021 58.6022 93.21 57.6082 93.21ZM57.6082 90.942C58.3362 90.942 58.9172 90.732 59.3512 90.312C59.7852 89.892 60.0022 89.332 60.0022 88.632V82.038C60.0022 81.338 59.7852 80.778 59.3512 80.358C58.9172 79.938 58.3362 79.728 57.6082 79.728C56.8802 79.728 56.2992 79.938 55.8652 80.358C55.4312 80.778 55.2142 81.338 55.2142 82.038V88.632C55.2142 89.332 55.4312 89.892 55.8652 90.312C56.2992 90.732 56.8802 90.942 57.6082 90.942ZM57.6082 86.7C57.2022 86.7 56.8662 86.567 56.6002 86.301C56.3482 86.035 56.2222 85.692 56.2222 85.272C56.2222 84.852 56.3482 84.516 56.6002 84.264C56.8522 84.012 57.1882 83.886 57.6082 83.886C58.0282 83.886 58.3642 84.012 58.6162 84.264C58.8682 84.516 58.9942 84.852 58.9942 85.272C58.9942 85.692 58.8682 86.035 58.6162 86.301C58.3642 86.567 58.0282 86.7 57.6082 86.7ZM70.4 93.21C69.378 93.21 68.475 93 67.691 92.58C66.921 92.146 66.319 91.544 65.885 90.774C65.465 89.99 65.255 89.087 65.255 88.065C65.255 87.337 65.374 86.574 65.612 85.776C65.864 84.978 66.207 84.229 66.641 83.529L70.253 77.67H73.172L68.636 84.81L68.762 84.894C69.042 84.46 69.42 84.131 69.896 83.907C70.372 83.683 70.904 83.571 71.492 83.571C72.318 83.571 73.032 83.767 73.634 84.159C74.236 84.551 74.705 85.097 75.041 85.797C75.377 86.497 75.545 87.316 75.545 88.254C75.545 89.248 75.328 90.116 74.894 90.858C74.474 91.6 73.879 92.181 73.109 92.601C72.353 93.007 71.45 93.21 70.4 93.21ZM70.4 90.984C71.17 90.984 71.793 90.739 72.269 90.249C72.745 89.745 72.983 89.094 72.983 88.296C72.983 87.47 72.745 86.812 72.269 86.322C71.793 85.818 71.17 85.566 70.4 85.566C69.63 85.566 69.007 85.818 68.531 86.322C68.055 86.812 67.817 87.47 67.817 88.296C67.817 89.094 68.055 89.745 68.531 90.249C69.007 90.739 69.63 90.984 70.4 90.984ZM80.4198 93L84.9558 85.86L84.8298 85.776C84.5498 86.21 84.1718 86.539 83.6958 86.763C83.2198 86.987 82.6878 87.099 82.0998 87.099C81.2878 87.099 80.5738 86.903 79.9578 86.511C79.3558 86.119 78.8868 85.573 78.5508 84.873C78.2148 84.173 78.0468 83.354 78.0468 82.416C78.0468 81.408 78.2568 80.54 78.6768 79.812C79.1108 79.07 79.7128 78.496 80.4828 78.09C81.2528 77.67 82.1488 77.46 83.1708 77.46C84.2208 77.46 85.1308 77.677 85.9008 78.111C86.6708 78.531 87.2658 79.126 87.6858 79.896C88.1198 80.666 88.3368 81.569 88.3368 82.605C88.3368 83.319 88.2178 84.082 87.9798 84.894C87.7418 85.692 87.3988 86.441 86.9508 87.141L83.3388 93H80.4198ZM83.1918 85.104C83.9618 85.104 84.5848 84.859 85.0608 84.369C85.5368 83.865 85.7748 83.2 85.7748 82.374C85.7748 81.576 85.5368 80.932 85.0608 80.442C84.5848 79.938 83.9618 79.686 83.1918 79.686C82.4218 79.686 81.7988 79.938 81.3228 80.442C80.8468 80.932 80.6088 81.576 80.6088 82.374C80.6088 83.2 80.8468 83.865 81.3228 84.369C81.7988 84.859 82.4218 85.104 83.1918 85.104ZM98.2362 93.21C97.6342 93.21 97.1582 93.035 96.8082 92.685C96.4442 92.335 96.2622 91.859 96.2622 91.257C96.2622 90.655 96.4442 90.179 96.8082 89.829C97.1582 89.465 97.6342 89.283 98.2362 89.283C98.8382 89.283 99.3212 89.465 99.6852 89.829C100.035 90.179 100.21 90.655 100.21 91.257C100.21 91.859 100.035 92.335 99.6852 92.685C99.3212 93.035 98.8382 93.21 98.2362 93.21ZM108.967 93.21C108.365 93.21 107.889 93.035 107.539 92.685C107.175 92.335 106.993 91.859 106.993 91.257C106.993 90.655 107.175 90.179 107.539 89.829C107.889 89.465 108.365 89.283 108.967 89.283C109.569 89.283 110.052 89.465 110.416 89.829C110.766 90.179 110.941 90.655 110.941 91.257C110.941 91.859 110.766 92.335 110.416 92.685C110.052 93.035 109.569 93.21 108.967 93.21ZM119.719 93.21C119.117 93.21 118.634 93.035 118.27 92.685C117.92 92.335 117.745 91.859 117.745 91.257C117.745 90.655 117.92 90.179 118.27 89.829C118.634 89.465 119.117 89.283 119.719 89.283C120.321 89.283 120.797 89.465 121.147 89.829C121.511 90.179 121.693 90.655 121.693 91.257C121.693 91.859 121.511 92.335 121.147 92.685C120.797 93.035 120.321 93.21 119.719 93.21Z" fill="white"/>
<path d="M6.44101 21.21C5.44701 21.21 4.58601 21.021 3.85801 20.643C3.13001 20.265 2.56301 19.733 2.15701 19.047C1.76501 18.361 1.56901 17.556 1.56901 16.632V10.038C1.56901 9.114 1.76501 8.309 2.15701 7.623C2.56301 6.937 3.13001 6.405 3.85801 6.027C4.58601 5.649 5.44701 5.46 6.44101 5.46C7.44901 5.46 8.31001 5.649 9.02401 6.027C9.75201 6.405 10.312 6.937 10.704 7.623C11.11 8.309 11.313 9.114 11.313 10.038V16.632C11.313 17.556 11.11 18.361 10.704 19.047C10.312 19.733 9.75201 20.265 9.02401 20.643C8.29601 21.021 7.43501 21.21 6.44101 21.21ZM6.44101 18.942C7.16901 18.942 7.75001 18.732 8.18401 18.312C8.61801 17.892 8.83501 17.332 8.83501 16.632V10.038C8.83501 9.338 8.61801 8.778 8.18401 8.358C7.75001 7.938 7.16901 7.728 6.44101 7.728C5.71301 7.728 5.13201 7.938 4.69801 8.358C4.26401 8.778 4.04701 9.338 4.04701 10.038V16.632C4.04701 17.332 4.26401 17.892 4.69801 18.312C5.13201 18.732 5.71301 18.942 6.44101 18.942ZM6.44101 14.7C6.03501 14.7 5.69901 14.567 5.43301 14.301C5.18101 14.035 5.05501 13.692 5.05501 13.272C5.05501 12.852 5.18101 12.516 5.43301 12.264C5.68501 12.012 6.02101 11.886 6.44101 11.886C6.86101 11.886 7.19701 12.012 7.44901 12.264C7.70101 12.516 7.82701 12.852 7.82701 13.272C7.82701 13.692 7.70101 14.035 7.44901 14.301C7.19701 14.567 6.86101 14.7 6.44101 14.7ZM13.6888 21L17.7208 15.036L13.9618 9.45H16.9228L18.7078 12.285C18.8198 12.453 18.9178 12.642 19.0018 12.852C19.0998 13.062 19.1768 13.23 19.2328 13.356C19.2888 13.23 19.3658 13.062 19.4638 12.852C19.5618 12.642 19.6598 12.453 19.7578 12.285L21.5638 9.45H24.5248L20.7658 15.036L24.7768 21H21.7948L19.7998 17.829C19.6878 17.647 19.5828 17.451 19.4848 17.241C19.3868 17.031 19.3028 16.863 19.2328 16.737C19.1768 16.863 19.0998 17.031 19.0018 17.241C18.9038 17.451 18.7988 17.647 18.6868 17.829L16.6498 21H13.6888ZM32.0246 21.21C31.0166 21.21 30.1416 21.042 29.3996 20.706C28.6576 20.356 28.0836 19.866 27.6776 19.236C27.2716 18.606 27.0686 17.871 27.0686 17.031C27.0686 16.107 27.3276 15.316 27.8456 14.658C28.3636 14 29.1336 13.44 30.1556 12.978L32.5076 11.907C33.0116 11.669 33.4036 11.347 33.6836 10.941C33.9776 10.535 34.1246 10.08 34.1246 9.576C34.1246 9.002 33.9356 8.547 33.5576 8.211C33.1796 7.861 32.6686 7.686 32.0246 7.686C31.3806 7.686 30.8626 7.861 30.4706 8.211C30.0926 8.561 29.9036 9.023 29.9036 9.597C29.9036 10.087 30.0506 10.535 30.3446 10.941C30.6386 11.347 31.0306 11.662 31.5206 11.886L33.8516 12.957C34.9576 13.447 35.7556 14.028 36.2456 14.7C36.7356 15.358 36.9806 16.135 36.9806 17.031C36.9806 18.319 36.5326 19.341 35.6366 20.097C34.7546 20.839 33.5506 21.21 32.0246 21.21ZM32.0246 18.963C32.7526 18.963 33.3266 18.774 33.7466 18.396C34.1806 18.004 34.3976 17.493 34.3976 16.863C34.3976 16.373 34.2506 15.911 33.9566 15.477C33.6626 15.029 33.2566 14.686 32.7386 14.448L30.2396 13.293C29.2876 12.845 28.5596 12.313 28.0556 11.697C27.5656 11.067 27.3206 10.318 27.3206 9.45C27.3206 8.666 27.5096 7.973 27.8876 7.371C28.2656 6.769 28.8046 6.3 29.5046 5.964C30.2186 5.628 31.0586 5.46 32.0246 5.46C32.9906 5.46 33.8166 5.628 34.5026 5.964C35.2026 6.3 35.7416 6.769 36.1196 7.371C36.5116 7.973 36.7076 8.666 36.7076 9.45C36.7076 10.332 36.4626 11.081 35.9726 11.697C35.4826 12.313 34.7616 12.845 33.8096 13.293L31.2896 14.469C30.7856 14.693 30.3866 15.022 30.0926 15.456C29.7986 15.89 29.6516 16.352 29.6516 16.842C29.6516 17.472 29.8616 17.983 30.2816 18.375C30.7156 18.767 31.2966 18.963 32.0246 18.963ZM44.8164 21.21C43.8084 21.21 42.9334 21.042 42.1914 20.706C41.4494 20.356 40.8754 19.866 40.4694 19.236C40.0634 18.606 39.8604 17.871 39.8604 17.031C39.8604 16.107 40.1194 15.316 40.6374 14.658C41.1554 14 41.9254 13.44 42.9474 12.978L45.2994 11.907C45.8034 11.669 46.1954 11.347 46.4754 10.941C46.7694 10.535 46.9164 10.08 46.9164 9.576C46.9164 9.002 46.7274 8.547 46.3494 8.211C45.9714 7.861 45.4604 7.686 44.8164 7.686C44.1724 7.686 43.6544 7.861 43.2624 8.211C42.8844 8.561 42.6954 9.023 42.6954 9.597C42.6954 10.087 42.8424 10.535 43.1364 10.941C43.4304 11.347 43.8224 11.662 44.3124 11.886L46.6434 12.957C47.7494 13.447 48.5474 14.028 49.0374 14.7C49.5274 15.358 49.7724 16.135 49.7724 17.031C49.7724 18.319 49.3244 19.341 48.4284 20.097C47.5464 20.839 46.3424 21.21 44.8164 21.21ZM44.8164 18.963C45.5444 18.963 46.1184 18.774 46.5384 18.396C46.9724 18.004 47.1894 17.493 47.1894 16.863C47.1894 16.373 47.0424 15.911 46.7484 15.477C46.4544 15.029 46.0484 14.686 45.5304 14.448L43.0314 13.293C42.0794 12.845 41.3514 12.313 40.8474 11.697C40.3574 11.067 40.1124 10.318 40.1124 9.45C40.1124 8.666 40.3014 7.973 40.6794 7.371C41.0574 6.769 41.5964 6.3 42.2964 5.964C43.0104 5.628 43.8504 5.46 44.8164 5.46C45.7824 5.46 46.6084 5.628 47.2944 5.964C47.9944 6.3 48.5334 6.769 48.9114 7.371C49.3034 7.973 49.4994 8.666 49.4994 9.45C49.4994 10.332 49.2544 11.081 48.7644 11.697C48.2744 12.313 47.5534 12.845 46.6014 13.293L44.0814 14.469C43.5774 14.693 43.1784 15.022 42.8844 15.456C42.5904 15.89 42.4434 16.352 42.4434 16.842C42.4434 17.472 42.6534 17.983 43.0734 18.375C43.5074 18.767 44.0884 18.963 44.8164 18.963ZM57.6082 21.21C56.6002 21.21 55.7252 21.042 54.9832 20.706C54.2412 20.356 53.6672 19.866 53.2612 19.236C52.8552 18.606 52.6522 17.871 52.6522 17.031C52.6522 16.107 52.9112 15.316 53.4292 14.658C53.9472 14 54.7172 13.44 55.7392 12.978L58.0912 11.907C58.5952 11.669 58.9872 11.347 59.2672 10.941C59.5612 10.535 59.7082 10.08 59.7082 9.576C59.7082 9.002 59.5192 8.547 59.1412 8.211C58.7632 7.861 58.2522 7.686 57.6082 7.686C56.9642 7.686 56.4462 7.861 56.0542 8.211C55.6762 8.561 55.4872 9.023 55.4872 9.597C55.4872 10.087 55.6342 10.535 55.9282 10.941C56.2222 11.347 56.6142 11.662 57.1042 11.886L59.4352 12.957C60.5412 13.447 61.3392 14.028 61.8292 14.7C62.3192 15.358 62.5642 16.135 62.5642 17.031C62.5642 18.319 62.1162 19.341 61.2202 20.097C60.3382 20.839 59.1342 21.21 57.6082 21.21ZM57.6082 18.963C58.3362 18.963 58.9102 18.774 59.3302 18.396C59.7642 18.004 59.9812 17.493 59.9812 16.863C59.9812 16.373 59.8342 15.911 59.5402 15.477C59.2462 15.029 58.8402 14.686 58.3222 14.448L55.8232 13.293C54.8712 12.845 54.1432 12.313 53.6392 11.697C53.1492 11.067 52.9042 10.318 52.9042 9.45C52.9042 8.666 53.0932 7.973 53.4712 7.371C53.8492 6.769 54.3882 6.3 55.0882 5.964C55.8022 5.628 56.6422 5.46 57.6082 5.46C58.5742 5.46 59.4002 5.628 60.0862 5.964C60.7862 6.3 61.3252 6.769 61.7032 7.371C62.0952 7.973 62.2912 8.666 62.2912 9.45C62.2912 10.332 62.0462 11.081 61.5562 11.697C61.0662 12.313 60.3452 12.845 59.3932 13.293L56.8732 14.469C56.3692 14.693 55.9702 15.022 55.6762 15.456C55.3822 15.89 55.2352 16.352 55.2352 16.842C55.2352 17.472 55.4452 17.983 55.8652 18.375C56.2992 18.767 56.8802 18.963 57.6082 18.963ZM70.4 21.21C69.392 21.21 68.517 21.042 67.775 20.706C67.033 20.356 66.459 19.866 66.053 19.236C65.647 18.606 65.444 17.871 65.444 17.031C65.444 16.107 65.703 15.316 66.221 14.658C66.739 14 67.509 13.44 68.531 12.978L70.883 11.907C71.387 11.669 71.779 11.347 72.059 10.941C72.353 10.535 72.5 10.08 72.5 9.576C72.5 9.002 72.311 8.547 71.933 8.211C71.555 7.861 71.044 7.686 70.4 7.686C69.756 7.686 69.238 7.861 68.846 8.211C68.468 8.561 68.279 9.023 68.279 9.597C68.279 10.087 68.426 10.535 68.72 10.941C69.014 11.347 69.406 11.662 69.896 11.886L72.227 12.957C73.333 13.447 74.131 14.028 74.621 14.7C75.111 15.358 75.356 16.135 75.356 17.031C75.356 18.319 74.908 19.341 74.012 20.097C73.13 20.839 71.926 21.21 70.4 21.21ZM70.4 18.963C71.128 18.963 71.702 18.774 72.122 18.396C72.556 18.004 72.773 17.493 72.773 16.863C72.773 16.373 72.626 15.911 72.332 15.477C72.038 15.029 71.632 14.686 71.114 14.448L68.615 13.293C67.663 12.845 66.935 12.313 66.431 11.697C65.941 11.067 65.696 10.318 65.696 9.45C65.696 8.666 65.885 7.973 66.263 7.371C66.641 6.769 67.18 6.3 67.88 5.964C68.594 5.628 69.434 5.46 70.4 5.46C71.366 5.46 72.192 5.628 72.878 5.964C73.578 6.3 74.117 6.769 74.495 7.371C74.887 7.973 75.083 8.666 75.083 9.45C75.083 10.332 74.838 11.081 74.348 11.697C73.858 12.313 73.137 12.845 72.185 13.293L69.665 14.469C69.161 14.693 68.762 15.022 68.468 15.456C68.174 15.89 68.027 16.352 68.027 16.842C68.027 17.472 68.237 17.983 68.657 18.375C69.091 18.767 69.672 18.963 70.4 18.963ZM77.6478 21L81.6798 15.036L77.9208 9.45H80.8818L82.6668 12.285C82.7788 12.453 82.8768 12.642 82.9608 12.852C83.0588 13.062 83.1358 13.23 83.1918 13.356C83.2478 13.23 83.3248 13.062 83.4228 12.852C83.5208 12.642 83.6188 12.453 83.7168 12.285L85.5228 9.45H88.4838L84.7248 15.036L88.7358 21H85.7538L83.7588 17.829C83.6468 17.647 83.5418 17.451 83.4438 17.241C83.3458 17.031 83.2618 16.863 83.1918 16.737C83.1358 16.863 83.0588 17.031 82.9608 17.241C82.8628 17.451 82.7578 17.647 82.6458 17.829L80.6088 21H77.6478ZM98.2362 21.21C97.6342 21.21 97.1582 21.035 96.8082 20.685C96.4442 20.335 96.2622 19.859 96.2622 19.257C96.2622 18.655 96.4442 18.179 96.8082 17.829C97.1582 17.465 97.6342 17.283 98.2362 17.283C98.8382 17.283 99.3212 17.465 99.6852 17.829C100.035 18.179 100.21 18.655 100.21 19.257C100.21 19.859 100.035 20.335 99.6852 20.685C99.3212 21.035 98.8382 21.21 98.2362 21.21ZM108.967 21.21C108.365 21.21 107.889 21.035 107.539 20.685C107.175 20.335 106.993 19.859 106.993 19.257C106.993 18.655 107.175 18.179 107.539 17.829C107.889 17.465 108.365 17.283 108.967 17.283C109.569 17.283 110.052 17.465 110.416 17.829C110.766 18.179 110.941 18.655 110.941 19.257C110.941 19.859 110.766 20.335 110.416 20.685C110.052 21.035 109.569 21.21 108.967 21.21ZM119.719 21.21C119.117 21.21 118.634 21.035 118.27 20.685C117.92 20.335 117.745 19.859 117.745 19.257C117.745 18.655 117.92 18.179 118.27 17.829C118.634 17.465 119.117 17.283 119.719 17.283C120.321 17.283 120.797 17.465 121.147 17.829C121.511 18.179 121.693 18.655 121.693 19.257C121.693 19.859 121.511 20.335 121.147 20.685C120.797 21.035 120.321 21.21 119.719 21.21Z" fill="white"/>
<path d="M6.44101 56.21C5.44701 56.21 4.58601 56.021 3.85801 55.643C3.13001 55.265 2.56301 54.733 2.15701 54.047C1.76501 53.361 1.56901 52.556 1.56901 51.632V45.038C1.56901 44.114 1.76501 43.309 2.15701 42.623C2.56301 41.937 3.13001 41.405 3.85801 41.027C4.58601 40.649 5.44701 40.46 6.44101 40.46C7.44901 40.46 8.31001 40.649 9.02401 41.027C9.75201 41.405 10.312 41.937 10.704 42.623C11.11 43.309 11.313 44.114 11.313 45.038V51.632C11.313 52.556 11.11 53.361 10.704 54.047C10.312 54.733 9.75201 55.265 9.02401 55.643C8.29601 56.021 7.43501 56.21 6.44101 56.21ZM6.44101 53.942C7.16901 53.942 7.75001 53.732 8.18401 53.312C8.61801 52.892 8.83501 52.332 8.83501 51.632V45.038C8.83501 44.338 8.61801 43.778 8.18401 43.358C7.75001 42.938 7.16901 42.728 6.44101 42.728C5.71301 42.728 5.13201 42.938 4.69801 43.358C4.26401 43.778 4.04701 44.338 4.04701 45.038V51.632C4.04701 52.332 4.26401 52.892 4.69801 53.312C5.13201 53.732 5.71301 53.942 6.44101 53.942ZM6.44101 49.7C6.03501 49.7 5.69901 49.567 5.43301 49.301C5.18101 49.035 5.05501 48.692 5.05501 48.272C5.05501 47.852 5.18101 47.516 5.43301 47.264C5.68501 47.012 6.02101 46.886 6.44101 46.886C6.86101 46.886 7.19701 47.012 7.44901 47.264C7.70101 47.516 7.82701 47.852 7.82701 48.272C7.82701 48.692 7.70101 49.035 7.44901 49.301C7.19701 49.567 6.86101 49.7 6.44101 49.7ZM13.6888 56L17.7208 50.036L13.9618 44.45H16.9228L18.7078 47.285C18.8198 47.453 18.9178 47.642 19.0018 47.852C19.0998 48.062 19.1768 48.23 19.2328 48.356C19.2888 48.23 19.3658 48.062 19.4638 47.852C19.5618 47.642 19.6598 47.453 19.7578 47.285L21.5638 44.45H24.5248L20.7658 50.036L24.7768 56H21.7948L19.7998 52.829C19.6878 52.647 19.5828 52.451 19.4848 52.241C19.3868 52.031 19.3028 51.863 19.2328 51.737C19.1768 51.863 19.0998 52.031 19.0018 52.241C18.9038 52.451 18.7988 52.647 18.6868 52.829L16.6498 56H13.6888ZM27.4886 56V53.69H31.4786V43.001L27.4676 45.983V43.211L30.9956 40.67H34.1036V53.69H37.3166V56H27.4886ZM44.6694 56.21C43.6754 56.21 42.8074 56.028 42.0654 55.664C41.3374 55.3 40.7704 54.789 40.3644 54.131C39.9584 53.473 39.7554 52.696 39.7554 51.8H42.4014C42.4014 52.486 42.5974 53.025 42.9894 53.417C43.3954 53.795 43.9624 53.984 44.6904 53.984C45.4184 53.984 45.9784 53.788 46.3704 53.396C46.7624 53.004 46.9584 52.472 46.9584 51.8V50.603C46.9584 49.917 46.7624 49.385 46.3704 49.007C45.9784 48.615 45.4184 48.419 44.6904 48.419H42.9684V46.046L46.3494 42.917H40.4484V40.67H49.0164V43.043L44.6904 47.012V46.172C46.2024 46.172 47.3994 46.571 48.2814 47.369C49.1634 48.167 49.6044 49.245 49.6044 50.603V51.8C49.6044 52.696 49.4014 53.473 48.9954 54.131C48.5894 54.789 48.0154 55.3 47.2734 55.664C46.5314 56.028 45.6634 56.21 44.6694 56.21ZM57.4612 56.21C56.4672 56.21 55.5992 56.028 54.8572 55.664C54.1292 55.3 53.5622 54.789 53.1562 54.131C52.7502 53.473 52.5472 52.696 52.5472 51.8H55.1932C55.1932 52.486 55.3892 53.025 55.7812 53.417C56.1872 53.795 56.7542 53.984 57.4822 53.984C58.2102 53.984 58.7702 53.788 59.1622 53.396C59.5542 53.004 59.7502 52.472 59.7502 51.8V50.603C59.7502 49.917 59.5542 49.385 59.1622 49.007C58.7702 48.615 58.2102 48.419 57.4822 48.419H55.7602V46.046L59.1412 42.917H53.2402V40.67H61.8082V43.043L57.4822 47.012V46.172C58.9942 46.172 60.1912 46.571 61.0732 47.369C61.9552 48.167 62.3962 49.245 62.3962 50.603V51.8C62.3962 52.696 62.1932 53.473 61.7872 54.131C61.3812 54.789 60.8072 55.3 60.0652 55.664C59.3232 56.028 58.4552 56.21 57.4612 56.21ZM67.355 56L72.899 43.106H67.985V45.332H65.36V40.67H75.524V43.148L70.169 56H67.355ZM77.6478 56L81.6798 50.036L77.9208 44.45H80.8818L82.6668 47.285C82.7788 47.453 82.8768 47.642 82.9608 47.852C83.0588 48.062 83.1358 48.23 83.1918 48.356C83.2478 48.23 83.3248 48.062 83.4228 47.852C83.5208 47.642 83.6188 47.453 83.7168 47.285L85.5228 44.45H88.4838L84.7248 50.036L88.7358 56H85.7538L83.7588 52.829C83.6468 52.647 83.5418 52.451 83.4438 52.241C83.3458 52.031 83.2618 51.863 83.1918 51.737C83.1358 51.863 83.0588 52.031 82.9608 52.241C82.8628 52.451 82.7578 52.647 82.6458 52.829L80.6088 56H77.6478ZM98.2362 56.21C97.6342 56.21 97.1582 56.035 96.8082 55.685C96.4442 55.335 96.2622 54.859 96.2622 54.257C96.2622 53.655 96.4442 53.179 96.8082 52.829C97.1582 52.465 97.6342 52.283 98.2362 52.283C98.8382 52.283 99.3212 52.465 99.6852 52.829C100.035 53.179 100.21 53.655 100.21 54.257C100.21 54.859 100.035 55.335 99.6852 55.685C99.3212 56.035 98.8382 56.21 98.2362 56.21ZM108.967 56.21C108.365 56.21 107.889 56.035 107.539 55.685C107.175 55.335 106.993 54.859 106.993 54.257C106.993 53.655 107.175 53.179 107.539 52.829C107.889 52.465 108.365 52.283 108.967 52.283C109.569 52.283 110.052 52.465 110.416 52.829C110.766 53.179 110.941 53.655 110.941 54.257C110.941 54.859 110.766 55.335 110.416 55.685C110.052 56.035 109.569 56.21 108.967 56.21ZM119.719 56.21C119.117 56.21 118.634 56.035 118.27 55.685C117.92 55.335 117.745 54.859 117.745 54.257C117.745 53.655 117.92 53.179 118.27 52.829C118.634 52.465 119.117 52.283 119.719 52.283C120.321 52.283 120.797 52.465 121.147 52.829C121.511 53.179 121.693 53.655 121.693 54.257C121.693 54.859 121.511 55.335 121.147 55.685C120.797 56.035 120.321 56.21 119.719 56.21Z" fill="white"/>
<circle cx="144" cy="14" r="9.5" stroke="url(#paint0_linear_1200_12223)" stroke-width="3"/>
<path d="M139 12L144.5 17.5L156 6" stroke="black" stroke-width="5" stroke-linecap="round"/>
<path d="M139 12L144.5 17.5L156 6" stroke="url(#paint1_linear_1200_12223)" stroke-width="3" stroke-linecap="round"/>
<circle cx="144" cy="50" r="9.5" stroke="url(#paint2_linear_1200_12223)" stroke-width="3"/>
<path d="M139 48L144.5 53.5L156 42" stroke="black" stroke-width="5" stroke-linecap="round"/>
<path d="M139 48L144.5 53.5L156 42" stroke="url(#paint3_linear_1200_12223)" stroke-width="3" stroke-linecap="round"/>
<circle cx="144" cy="86" r="9.5" stroke="url(#paint4_linear_1200_12223)" stroke-width="3"/>
<path d="M139 84L144.5 89.5L156 78" stroke="black" stroke-width="5" stroke-linecap="round"/>
<path d="M139 84L144.5 89.5L156 78" stroke="url(#paint5_linear_1200_12223)" stroke-width="3" stroke-linecap="round"/>
<defs>
<linearGradient id="paint0_linear_1200_12223" x1="155.374" y1="16.4358" x2="100.112" y2="4.9017" gradientUnits="userSpaceOnUse">
<stop stop-color="#1900FF"/>
<stop offset="1" stop-color="#EA85FE"/>
</linearGradient>
<linearGradient id="paint1_linear_1200_12223" x1="156.289" y1="13.0232" x2="115.6" y2="0.469119" gradientUnits="userSpaceOnUse">
<stop stop-color="#1900FF"/>
<stop offset="1" stop-color="#EA85FE"/>
</linearGradient>
<linearGradient id="paint2_linear_1200_12223" x1="155.374" y1="52.4358" x2="100.112" y2="40.9017" gradientUnits="userSpaceOnUse">
<stop stop-color="#1900FF"/>
<stop offset="1" stop-color="#EA85FE"/>
</linearGradient>
<linearGradient id="paint3_linear_1200_12223" x1="156.289" y1="49.0232" x2="115.6" y2="36.4691" gradientUnits="userSpaceOnUse">
<stop stop-color="#1900FF"/>
<stop offset="1" stop-color="#EA85FE"/>
</linearGradient>
<linearGradient id="paint4_linear_1200_12223" x1="155.374" y1="88.4358" x2="100.112" y2="76.9017" gradientUnits="userSpaceOnUse">
<stop stop-color="#1900FF"/>
<stop offset="1" stop-color="#EA85FE"/>
</linearGradient>
<linearGradient id="paint5_linear_1200_12223" x1="156.289" y1="85.0232" x2="115.6" y2="72.4691" gradientUnits="userSpaceOnUse">
<stop stop-color="#1900FF"/>
<stop offset="1" stop-color="#EA85FE"/>
</linearGradient>
</defs>
</svg>
