<?xml version="1.0" encoding="utf-8"?>
<!-- Generator: Adobe Illustrator 26.0.1, SVG Export Plug-In . SVG Version: 6.00 Build 0)  -->
<svg version="1.1" id="图层_1" xmlns="http://www.w3.org/2000/svg" xmlns:xlink="http://www.w3.org/1999/xlink" x="0px" y="0px"
	 viewBox="0 0 97 20" style="enable-background:new 0 0 97 20;" xml:space="preserve">
<style type="text/css">
	.st0{fill:#FFFFFF;}
	.st1{fill:#ED2F2F;}
</style>
<g>
	<path class="st0" d="M36,2.4l3.1,3.1v5.7L36,14.4h-8.9v-3.1h7.3L36,9.7V7.1l-1.6-1.6H24v12h-3.1V2.4H36z"/>
	<path class="st0" d="M61.5,7.1v1.6l-3.6,3.6l3.6,3.6v1.6h-3.1l-3.1-3.1h-2.6l-3.1,3.1h-3.1V16l3.6-3.6l-3.6-3.6V7.1h3.1l3.1,3.1
		h2.6l3.1-3.1H61.5z"/>
	<path class="st0" d="M84,2.4h3.1v15.1h-6.3l-3.1-3.1v-1.6h3.1l1.6,1.6H84V2.4z M80.8,9.7h-3.1l-4.2-4.2H72v12h-3.1V2.4h6.3l5.7,5.7
		L80.8,9.7L80.8,9.7z"/>
	<path class="st0" d="M94.1,2.4c0.5,0,1,0.1,1.4,0.4s0.8,0.6,1,1.1C96.9,4.3,97,4.8,97,5.3s-0.1,1-0.4,1.5c-0.3,0.4-0.6,0.8-1,1
		s-0.9,0.4-1.4,0.4s-1-0.1-1.5-0.4c-0.4-0.2-0.8-0.6-1-1c-0.3-0.4-0.4-0.9-0.4-1.5c0-0.5,0.1-1,0.4-1.4s0.6-0.8,1-1.1
		C93.1,2.6,93.6,2.4,94.1,2.4z M94.1,7.6c0.4,0,0.8-0.1,1.1-0.3c0.3-0.2,0.6-0.5,0.8-0.8c0.2-0.4,0.3-0.7,0.3-1.2
		c0-0.4-0.1-0.8-0.3-1.1c-0.2-0.3-0.5-0.6-0.8-0.8C94.9,3.1,94.5,3,94.1,3S93.3,3.1,93,3.3c-0.3,0.2-0.6,0.5-0.8,0.8
		c-0.2,0.3-0.3,0.7-0.3,1.1S92,6,92.2,6.4C92.4,6.7,92.7,7,93,7.2C93.3,7.5,93.7,7.6,94.1,7.6z M95.3,4.8c0,0.5-0.2,0.7-0.5,0.9
		l0.7,1.1h-0.7l-0.6-1h-0.5v1h-0.6V3.9h1.1c0.4,0,0.6,0.1,0.8,0.2C95.2,4.2,95.3,4.5,95.3,4.8z M93.7,5.2h0.5c0.2,0,0.3,0,0.4-0.1
		s0.1-0.2,0.1-0.4c0-0.2,0-0.3-0.1-0.3c-0.1-0.1-0.2-0.1-0.4-0.1h-0.5V5.2z"/>
	<g>
		<path class="st1" d="M5.5,5.6H0V2.5h15v3.1H9.2v12H5.5V5.6z"/>
	</g>
</g>
</svg>
