<svg width="97" height="20" viewBox="0 0 97 20" fill="none" xmlns="http://www.w3.org/2000/svg">
<path d="M19.2671 0L23.2534 3.9863V11.2945L19.2671 15.2808H7.9726V11.2945H17.274L19.2671 9.30137V5.97945L17.274 3.9863H3.9863V19.2671H0V0H19.2671Z" fill="white"/>
<path d="M51.8219 5.97945V7.9726L47.1712 12.6233L51.8219 17.274V19.2671H47.8356L43.8493 15.2808H40.5274L36.5411 19.2671H32.5548V17.274L37.2055 12.6233L32.5548 7.9726V5.97945H36.5411L40.5274 9.96575H43.8493L47.8356 5.97945H51.8219Z" fill="white"/>
<path d="M80.3904 0H84.3767V19.2671H76.4041L72.4178 15.2808V13.2877H76.4041L78.3972 15.2808H80.3904V0ZM76.4041 9.30137H72.4178L67.1027 3.9863H65.1096V19.2671H61.1233V0H69.0959L76.4041 7.30822V9.30137Z" fill="white"/>
<path d="M93.3518 0C94.0082 0 94.614 0.165806 95.1694 0.497418C95.7332 0.82903 96.1792 1.27543 96.5074 1.83662C96.8355 2.39781 96.9996 3.00151 96.9996 3.64773C96.9996 4.33646 96.8355 4.96143 96.5074 5.52261C96.1792 6.0753 95.7332 6.5132 95.1694 6.83631C94.614 7.15091 94.0082 7.30822 93.3518 7.30822C92.6786 7.30822 92.0602 7.15091 91.4964 6.83631C90.941 6.5217 90.4992 6.0838 90.171 5.52261C89.8513 4.96143 89.6914 4.33646 89.6914 3.64773C89.6914 3.00151 89.8555 2.39781 90.1837 1.83662C90.5118 1.27543 90.9536 0.82903 91.509 0.497418C92.0728 0.165806 92.6871 0 93.3518 0ZM93.3518 6.54296C93.8651 6.54296 94.3406 6.41542 94.7781 6.16033C95.2157 5.90524 95.5649 5.55663 95.8258 5.11448C96.0866 4.66382 96.2171 4.16641 96.2171 3.62222C96.2171 3.11205 96.0824 2.64014 95.8131 2.2065C95.5523 1.76435 95.1989 1.41573 94.7529 1.16064C94.3153 0.897053 93.8483 0.765258 93.3518 0.765258C92.8301 0.765258 92.3463 0.897053 91.9003 1.16064C91.4627 1.41573 91.1135 1.76435 90.8526 2.2065C90.6002 2.64864 90.474 3.12906 90.474 3.64773C90.474 4.19192 90.6002 4.68508 90.8526 5.12723C91.1135 5.56938 91.4627 5.918 91.9003 6.17308C92.3463 6.41967 92.8301 6.54296 93.3518 6.54296ZM94.7907 2.99726C94.7907 3.57546 94.5678 3.94958 94.1218 4.11964L94.9675 5.49711H94.0965L93.3392 4.23443H92.7586V5.49711H92.0013V1.79836H93.4402C93.8946 1.79836 94.2312 1.89614 94.45 2.09171C94.6771 2.27877 94.7907 2.58062 94.7907 2.99726ZM92.7586 3.55845H93.3644C93.6085 3.55845 93.7768 3.52019 93.8693 3.44366C93.9619 3.35863 94.0082 3.20983 94.0082 2.99726C94.0082 2.8017 93.9619 2.66565 93.8693 2.58912C93.7768 2.5126 93.6085 2.47433 93.3644 2.47433H92.7586V3.55845Z" fill="white"/>
</svg>
